<?xml version="1.0" encoding="UTF-8" standalone="no"?>
<!DOCTYPE svg PUBLIC "-//W3C//DTD SVG 1.1//EN"
 "http://www.w3.org/Graphics/SVG/1.1/DTD/svg11.dtd">
<!-- Generated by graphviz version 2.40.1 (20161225.0304)
 -->
<!-- Title: controllers_diagram Pages: 1 -->
<svg width="710pt" height="716pt"
 viewBox="0.00 0.00 710.00 716.00" xmlns="http://www.w3.org/2000/svg" xmlns:xlink="http://www.w3.org/1999/xlink">
<g id="graph0" class="graph" transform="scale(1 1) rotate(0) translate(4 712)">
<title>controllers_diagram</title>
<polygon fill="transparent" stroke="transparent" points="-4,4 -4,-712 706,-712 706,4 -4,4"/>
<!-- _diagram_info -->
<g id="node1" class="node">
<title>_diagram_info</title>
<text text-anchor="start" x="293" y="-101.6" font-family="Times,serif" font-size="13.00" fill="#000000">Controllers diagram</text>
<text text-anchor="start" x="293" y="-87.6" font-family="Times,serif" font-size="13.00" fill="#000000">Date: Jan 23 2020 &#45; 15:00</text>
<text text-anchor="start" x="293" y="-73.6" font-family="Times,serif" font-size="13.00" fill="#000000">Migration version: 20200116141500</text>
<text text-anchor="start" x="293" y="-59.6" font-family="Times,serif" font-size="13.00" fill="#000000">Generated by RailRoady 1.5.3</text>
<text text-anchor="start" x="293" y="-45.6" font-family="Times,serif" font-size="13.00" fill="#000000">http://railroady.prestonlee.com</text>
</g>
<!-- SemainesController -->
<g id="node2" class="node">
<title>SemainesController</title>
<path fill="none" stroke="#000000" d="M183,-152.5C183,-152.5 358,-152.5 358,-152.5 364,-152.5 370,-158.5 370,-164.5 370,-164.5 370,-413.5 370,-413.5 370,-419.5 364,-425.5 358,-425.5 358,-425.5 183,-425.5 183,-425.5 177,-425.5 171,-419.5 171,-413.5 171,-413.5 171,-164.5 171,-164.5 171,-158.5 177,-152.5 183,-152.5"/>
<text text-anchor="middle" x="270.5" y="-410.3" font-family="Times,serif" font-size="14.00" fill="#000000">SemainesController</text>
<polyline fill="none" stroke="#000000" points="171,-402.5 370,-402.5 "/>
<text text-anchor="start" x="179" y="-387.3" font-family="Times,serif" font-size="14.00" fill="#000000">create</text>
<text text-anchor="start" x="179" y="-372.3" font-family="Times,serif" font-size="14.00" fill="#000000">destroy</text>
<text text-anchor="start" x="179" y="-357.3" font-family="Times,serif" font-size="14.00" fill="#000000">edit</text>
<text text-anchor="start" x="179" y="-342.3" font-family="Times,serif" font-size="14.00" fill="#000000">index</text>
<text text-anchor="start" x="179" y="-327.3" font-family="Times,serif" font-size="14.00" fill="#000000">new</text>
<text text-anchor="start" x="179" y="-312.3" font-family="Times,serif" font-size="14.00" fill="#000000">show</text>
<text text-anchor="start" x="179" y="-297.3" font-family="Times,serif" font-size="14.00" fill="#000000">update</text>
<polyline fill="none" stroke="#000000" points="171,-289.5 370,-289.5 "/>
<polyline fill="none" stroke="#000000" points="171,-265.5 370,-265.5 "/>
<text text-anchor="start" x="179" y="-250.3" font-family="Times,serif" font-size="14.00" fill="#000000">_layout</text>
<text text-anchor="start" x="179" y="-235.3" font-family="Times,serif" font-size="14.00" fill="#000000">duo_semaine_utilisateur_unique?</text>
<text text-anchor="start" x="179" y="-220.3" font-family="Times,serif" font-size="14.00" fill="#000000">fait_un_lundi</text>
<text text-anchor="start" x="179" y="-205.3" font-family="Times,serif" font-size="14.00" fill="#000000">find_semaine</text>
<text text-anchor="start" x="179" y="-190.3" font-family="Times,serif" font-size="14.00" fill="#000000">format_numero_semaine</text>
<text text-anchor="start" x="179" y="-175.3" font-family="Times,serif" font-size="14.00" fill="#000000">semaine_courrante_si_vide</text>
<text text-anchor="start" x="179" y="-160.3" font-family="Times,serif" font-size="14.00" fill="#000000">semaine_params</text>
</g>
<!-- LieusController -->
<g id="node3" class="node">
<title>LieusController</title>
<path fill="none" stroke="#000000" d="M582,-437.5C582,-437.5 660,-437.5 660,-437.5 666,-437.5 672,-443.5 672,-449.5 672,-449.5 672,-638.5 672,-638.5 672,-644.5 666,-650.5 660,-650.5 660,-650.5 582,-650.5 582,-650.5 576,-650.5 570,-644.5 570,-638.5 570,-638.5 570,-449.5 570,-449.5 570,-443.5 576,-437.5 582,-437.5"/>
<text text-anchor="middle" x="621" y="-635.3" font-family="Times,serif" font-size="14.00" fill="#000000">LieusController</text>
<polyline fill="none" stroke="#000000" points="570,-627.5 672,-627.5 "/>
<text text-anchor="start" x="578" y="-612.3" font-family="Times,serif" font-size="14.00" fill="#000000">create</text>
<text text-anchor="start" x="578" y="-597.3" font-family="Times,serif" font-size="14.00" fill="#000000">destroy</text>
<text text-anchor="start" x="578" y="-582.3" font-family="Times,serif" font-size="14.00" fill="#000000">edit</text>
<text text-anchor="start" x="578" y="-567.3" font-family="Times,serif" font-size="14.00" fill="#000000">index</text>
<text text-anchor="start" x="578" y="-552.3" font-family="Times,serif" font-size="14.00" fill="#000000">new</text>
<text text-anchor="start" x="578" y="-537.3" font-family="Times,serif" font-size="14.00" fill="#000000">show</text>
<text text-anchor="start" x="578" y="-522.3" font-family="Times,serif" font-size="14.00" fill="#000000">update</text>
<polyline fill="none" stroke="#000000" points="570,-514.5 672,-514.5 "/>
<polyline fill="none" stroke="#000000" points="570,-490.5 672,-490.5 "/>
<text text-anchor="start" x="578" y="-475.3" font-family="Times,serif" font-size="14.00" fill="#000000">_layout</text>
<text text-anchor="start" x="578" y="-460.3" font-family="Times,serif" font-size="14.00" fill="#000000">find_lieu</text>
<text text-anchor="start" x="578" y="-445.3" font-family="Times,serif" font-size="14.00" fill="#000000">lieu_params</text>
</g>
<!-- ServicesController -->
<g id="node4" class="node">
<title>ServicesController</title>
<path fill="none" stroke="#000000" d="M430,-437.5C430,-437.5 524,-437.5 524,-437.5 530,-437.5 536,-443.5 536,-449.5 536,-449.5 536,-638.5 536,-638.5 536,-644.5 530,-650.5 524,-650.5 524,-650.5 430,-650.5 430,-650.5 424,-650.5 418,-644.5 418,-638.5 418,-638.5 418,-449.5 418,-449.5 418,-443.5 424,-437.5 430,-437.5"/>
<text text-anchor="middle" x="477" y="-635.3" font-family="Times,serif" font-size="14.00" fill="#000000">ServicesController</text>
<polyline fill="none" stroke="#000000" points="418,-627.5 536,-627.5 "/>
<text text-anchor="start" x="426" y="-612.3" font-family="Times,serif" font-size="14.00" fill="#000000">create</text>
<text text-anchor="start" x="426" y="-597.3" font-family="Times,serif" font-size="14.00" fill="#000000">destroy</text>
<text text-anchor="start" x="426" y="-582.3" font-family="Times,serif" font-size="14.00" fill="#000000">edit</text>
<text text-anchor="start" x="426" y="-567.3" font-family="Times,serif" font-size="14.00" fill="#000000">index</text>
<text text-anchor="start" x="426" y="-552.3" font-family="Times,serif" font-size="14.00" fill="#000000">new</text>
<text text-anchor="start" x="426" y="-537.3" font-family="Times,serif" font-size="14.00" fill="#000000">show</text>
<text text-anchor="start" x="426" y="-522.3" font-family="Times,serif" font-size="14.00" fill="#000000">update</text>
<polyline fill="none" stroke="#000000" points="418,-514.5 536,-514.5 "/>
<polyline fill="none" stroke="#000000" points="418,-490.5 536,-490.5 "/>
<text text-anchor="start" x="426" y="-475.3" font-family="Times,serif" font-size="14.00" fill="#000000">_layout</text>
<text text-anchor="start" x="426" y="-460.3" font-family="Times,serif" font-size="14.00" fill="#000000">find_service</text>
<text text-anchor="start" x="426" y="-445.3" font-family="Times,serif" font-size="14.00" fill="#000000">service_params</text>
</g>
<!-- CongesController -->
<g id="node5" class="node">
<title>CongesController</title>
<path fill="none" stroke="#000000" d="M601,-.5C601,-.5 690,-.5 690,-.5 696,-.5 702,-6.5 702,-12.5 702,-12.5 702,-216.5 702,-216.5 702,-222.5 696,-228.5 690,-228.5 690,-228.5 601,-228.5 601,-228.5 595,-228.5 589,-222.5 589,-216.5 589,-216.5 589,-12.5 589,-12.5 589,-6.5 595,-.5 601,-.5"/>
<text text-anchor="middle" x="645.5" y="-213.3" font-family="Times,serif" font-size="14.00" fill="#000000">CongesController</text>
<polyline fill="none" stroke="#000000" points="589,-205.5 702,-205.5 "/>
<text text-anchor="start" x="597" y="-190.3" font-family="Times,serif" font-size="14.00" fill="#000000">create</text>
<text text-anchor="start" x="597" y="-175.3" font-family="Times,serif" font-size="14.00" fill="#000000">destroy</text>
<text text-anchor="start" x="597" y="-160.3" font-family="Times,serif" font-size="14.00" fill="#000000">edit</text>
<text text-anchor="start" x="597" y="-145.3" font-family="Times,serif" font-size="14.00" fill="#000000">index</text>
<text text-anchor="start" x="597" y="-130.3" font-family="Times,serif" font-size="14.00" fill="#000000">new</text>
<text text-anchor="start" x="597" y="-115.3" font-family="Times,serif" font-size="14.00" fill="#000000">show</text>
<text text-anchor="start" x="597" y="-100.3" font-family="Times,serif" font-size="14.00" fill="#000000">update</text>
<polyline fill="none" stroke="#000000" points="589,-92.5 702,-92.5 "/>
<polyline fill="none" stroke="#000000" points="589,-68.5 702,-68.5 "/>
<text text-anchor="start" x="597" y="-53.3" font-family="Times,serif" font-size="14.00" fill="#000000">_layout</text>
<text text-anchor="start" x="597" y="-38.3" font-family="Times,serif" font-size="14.00" fill="#000000">conge_params</text>
<text text-anchor="start" x="597" y="-23.3" font-family="Times,serif" font-size="14.00" fill="#000000">find_conge</text>
<text text-anchor="start" x="597" y="-8.3" font-family="Times,serif" font-size="14.00" fill="#000000">verif_accord</text>
</g>
<!-- AbsencesController -->
<g id="node6" class="node">
<title>AbsencesController</title>
<path fill="none" stroke="#000000" d="M278,-456.5C278,-456.5 378,-456.5 378,-456.5 384,-456.5 390,-462.5 390,-468.5 390,-468.5 390,-657.5 390,-657.5 390,-663.5 384,-669.5 378,-669.5 378,-669.5 278,-669.5 278,-669.5 272,-669.5 266,-663.5 266,-657.5 266,-657.5 266,-468.5 266,-468.5 266,-462.5 272,-456.5 278,-456.5"/>
<text text-anchor="middle" x="328" y="-654.3" font-family="Times,serif" font-size="14.00" fill="#000000">AbsencesController</text>
<polyline fill="none" stroke="#000000" points="266,-646.5 390,-646.5 "/>
<text text-anchor="start" x="274" y="-631.3" font-family="Times,serif" font-size="14.00" fill="#000000">create</text>
<text text-anchor="start" x="274" y="-616.3" font-family="Times,serif" font-size="14.00" fill="#000000">destroy</text>
<text text-anchor="start" x="274" y="-601.3" font-family="Times,serif" font-size="14.00" fill="#000000">edit</text>
<text text-anchor="start" x="274" y="-586.3" font-family="Times,serif" font-size="14.00" fill="#000000">index</text>
<text text-anchor="start" x="274" y="-571.3" font-family="Times,serif" font-size="14.00" fill="#000000">new</text>
<text text-anchor="start" x="274" y="-556.3" font-family="Times,serif" font-size="14.00" fill="#000000">show</text>
<text text-anchor="start" x="274" y="-541.3" font-family="Times,serif" font-size="14.00" fill="#000000">update</text>
<polyline fill="none" stroke="#000000" points="266,-533.5 390,-533.5 "/>
<polyline fill="none" stroke="#000000" points="266,-509.5 390,-509.5 "/>
<text text-anchor="start" x="274" y="-494.3" font-family="Times,serif" font-size="14.00" fill="#000000">_layout</text>
<text text-anchor="start" x="274" y="-479.3" font-family="Times,serif" font-size="14.00" fill="#000000">absence_params</text>
<text text-anchor="start" x="274" y="-464.3" font-family="Times,serif" font-size="14.00" fill="#000000">find_absence</text>
</g>
<!-- HomeController -->
<g id="node7" class="node">
<title>HomeController</title>
<path fill="none" stroke="#000000" d="M601,-266.5C601,-266.5 683,-266.5 683,-266.5 689,-266.5 695,-272.5 695,-278.5 695,-278.5 695,-347.5 695,-347.5 695,-353.5 689,-359.5 683,-359.5 683,-359.5 601,-359.5 601,-359.5 595,-359.5 589,-353.5 589,-347.5 589,-347.5 589,-278.5 589,-278.5 589,-272.5 595,-266.5 601,-266.5"/>
<text text-anchor="middle" x="642" y="-344.3" font-family="Times,serif" font-size="14.00" fill="#000000">HomeController</text>
<polyline fill="none" stroke="#000000" points="589,-336.5 695,-336.5 "/>
<text text-anchor="start" x="597" y="-321.3" font-family="Times,serif" font-size="14.00" fill="#000000">index</text>
<polyline fill="none" stroke="#000000" points="589,-313.5 695,-313.5 "/>
<polyline fill="none" stroke="#000000" points="589,-289.5 695,-289.5 "/>
<text text-anchor="start" x="597" y="-274.3" font-family="Times,serif" font-size="14.00" fill="#000000">_layout</text>
</g>
<!-- ApplicationController -->
<g id="node8" class="node">
<title>ApplicationController</title>
<path fill="none" stroke="#000000" d="M12,-114.5C12,-114.5 124,-114.5 124,-114.5 130,-114.5 136,-120.5 136,-126.5 136,-126.5 136,-196.5 136,-196.5 136,-202.5 130,-208.5 124,-208.5 124,-208.5 12,-208.5 12,-208.5 6,-208.5 0,-202.5 0,-196.5 0,-196.5 0,-126.5 0,-126.5 0,-120.5 6,-114.5 12,-114.5"/>
<text text-anchor="middle" x="68" y="-193.3" font-family="Times,serif" font-size="14.00" fill="#000000">ApplicationController</text>
<polyline fill="none" stroke="#000000" points="0,-185.5 136,-185.5 "/>
<polyline fill="none" stroke="#000000" points="0,-161.5 136,-161.5 "/>
<polyline fill="none" stroke="#000000" points="0,-137.5 136,-137.5 "/>
<text text-anchor="start" x="8" y="-122.3" font-family="Times,serif" font-size="14.00" fill="#000000">_layout</text>
</g>
<!-- TypeAbsencesController -->
<g id="node9" class="node">
<title>TypeAbsencesController</title>
<path fill="none" stroke="#000000" d="M411,-190.5C411,-190.5 539,-190.5 539,-190.5 545,-190.5 551,-196.5 551,-202.5 551,-202.5 551,-391.5 551,-391.5 551,-397.5 545,-403.5 539,-403.5 539,-403.5 411,-403.5 411,-403.5 405,-403.5 399,-397.5 399,-391.5 399,-391.5 399,-202.5 399,-202.5 399,-196.5 405,-190.5 411,-190.5"/>
<text text-anchor="middle" x="475" y="-388.3" font-family="Times,serif" font-size="14.00" fill="#000000">TypeAbsencesController</text>
<polyline fill="none" stroke="#000000" points="399,-380.5 551,-380.5 "/>
<text text-anchor="start" x="407" y="-365.3" font-family="Times,serif" font-size="14.00" fill="#000000">create</text>
<text text-anchor="start" x="407" y="-350.3" font-family="Times,serif" font-size="14.00" fill="#000000">destroy</text>
<text text-anchor="start" x="407" y="-335.3" font-family="Times,serif" font-size="14.00" fill="#000000">edit</text>
<text text-anchor="start" x="407" y="-320.3" font-family="Times,serif" font-size="14.00" fill="#000000">index</text>
<text text-anchor="start" x="407" y="-305.3" font-family="Times,serif" font-size="14.00" fill="#000000">new</text>
<text text-anchor="start" x="407" y="-290.3" font-family="Times,serif" font-size="14.00" fill="#000000">show</text>
<text text-anchor="start" x="407" y="-275.3" font-family="Times,serif" font-size="14.00" fill="#000000">update</text>
<polyline fill="none" stroke="#000000" points="399,-267.5 551,-267.5 "/>
<polyline fill="none" stroke="#000000" points="399,-243.5 551,-243.5 "/>
<text text-anchor="start" x="407" y="-228.3" font-family="Times,serif" font-size="14.00" fill="#000000">_layout</text>
<text text-anchor="start" x="407" y="-213.3" font-family="Times,serif" font-size="14.00" fill="#000000">find_type_absence</text>
<text text-anchor="start" x="407" y="-198.3" font-family="Times,serif" font-size="14.00" fill="#000000">type_absence_params</text>
</g>
<!-- UtilisateursController -->
<g id="node10" class="node">
<title>UtilisateursController</title>
<path fill="none" stroke="#000000" d="M107,-494.5C107,-494.5 217,-494.5 217,-494.5 223,-494.5 229,-500.5 229,-506.5 229,-506.5 229,-695.5 229,-695.5 229,-701.5 223,-707.5 217,-707.5 217,-707.5 107,-707.5 107,-707.5 101,-707.5 95,-701.5 95,-695.5 95,-695.5 95,-506.5 95,-506.5 95,-500.5 101,-494.5 107,-494.5"/>
<text text-anchor="middle" x="162" y="-692.3" font-family="Times,serif" font-size="14.00" fill="#000000">UtilisateursController</text>
<polyline fill="none" stroke="#000000" points="95,-684.5 229,-684.5 "/>
<text text-anchor="start" x="103" y="-669.3" font-family="Times,serif" font-size="14.00" fill="#000000">create</text>
<text text-anchor="start" x="103" y="-654.3" font-family="Times,serif" font-size="14.00" fill="#000000">destroy</text>
<text text-anchor="start" x="103" y="-639.3" font-family="Times,serif" font-size="14.00" fill="#000000">edit</text>
<text text-anchor="start" x="103" y="-624.3" font-family="Times,serif" font-size="14.00" fill="#000000">index</text>
<text text-anchor="start" x="103" y="-609.3" font-family="Times,serif" font-size="14.00" fill="#000000">new</text>
<text text-anchor="start" x="103" y="-594.3" font-family="Times,serif" font-size="14.00" fill="#000000">show</text>
<text text-anchor="start" x="103" y="-579.3" font-family="Times,serif" font-size="14.00" fill="#000000">update</text>
<polyline fill="none" stroke="#000000" points="95,-571.5 229,-571.5 "/>
<polyline fill="none" stroke="#000000" points="95,-547.5 229,-547.5 "/>
<text text-anchor="start" x="103" y="-532.3" font-family="Times,serif" font-size="14.00" fill="#000000">_layout</text>
<text text-anchor="start" x="103" y="-517.3" font-family="Times,serif" font-size="14.00" fill="#000000">find_utilisateur</text>
<text text-anchor="start" x="103" y="-502.3" font-family="Times,serif" font-size="14.00" fill="#000000">utilisateur_params</text>
</g>
<!-- GroupesController -->
<g id="node11" class="node">
<title>GroupesController</title>
<path fill="none" stroke="#000000" d="M31,-247.5C31,-247.5 125,-247.5 125,-247.5 131,-247.5 137,-253.5 137,-259.5 137,-259.5 137,-448.5 137,-448.5 137,-454.5 131,-460.5 125,-460.5 125,-460.5 31,-460.5 31,-460.5 25,-460.5 19,-454.5 19,-448.5 19,-448.5 19,-259.5 19,-259.5 19,-253.5 25,-247.5 31,-247.5"/>
<text text-anchor="middle" x="78" y="-445.3" font-family="Times,serif" font-size="14.00" fill="#000000">GroupesController</text>
<polyline fill="none" stroke="#000000" points="19,-437.5 137,-437.5 "/>
<text text-anchor="start" x="27" y="-422.3" font-family="Times,serif" font-size="14.00" fill="#000000">create</text>
<text text-anchor="start" x="27" y="-407.3" font-family="Times,serif" font-size="14.00" fill="#000000">destroy</text>
<text text-anchor="start" x="27" y="-392.3" font-family="Times,serif" font-size="14.00" fill="#000000">edit</text>
<text text-anchor="start" x="27" y="-377.3" font-family="Times,serif" font-size="14.00" fill="#000000">index</text>
<text text-anchor="start" x="27" y="-362.3" font-family="Times,serif" font-size="14.00" fill="#000000">new</text>
<text text-anchor="start" x="27" y="-347.3" font-family="Times,serif" font-size="14.00" fill="#000000">show</text>
<text text-anchor="start" x="27" y="-332.3" font-family="Times,serif" font-size="14.00" fill="#000000">update</text>
<polyline fill="none" stroke="#000000" points="19,-324.5 137,-324.5 "/>
<polyline fill="none" stroke="#000000" points="19,-300.5 137,-300.5 "/>
<text text-anchor="start" x="27" y="-285.3" font-family="Times,serif" font-size="14.00" fill="#000000">_layout</text>
<text text-anchor="start" x="27" y="-270.3" font-family="Times,serif" font-size="14.00" fill="#000000">find_groupe</text>
<text text-anchor="start" x="27" y="-255.3" font-family="Times,serif" font-size="14.00" fill="#000000">groupe_params</text>
</g>
</g>
</svg>
