<?xml version="1.0" encoding="UTF-8" standalone="no"?>
<!DOCTYPE svg PUBLIC "-//W3C//DTD SVG 1.1//EN"
 "http://www.w3.org/Graphics/SVG/1.1/DTD/svg11.dtd">
<!-- Generated by graphviz version 2.40.1 (20161225.0304)
 -->
<!-- Title: controllers_diagram Pages: 1 -->
<svg width="954pt" height="870pt"
 viewBox="0.00 0.00 954.00 870.00" xmlns="http://www.w3.org/2000/svg" xmlns:xlink="http://www.w3.org/1999/xlink">
<g id="graph0" class="graph" transform="scale(1 1) rotate(0) translate(4 866)">
<title>controllers_diagram</title>
<polygon fill="transparent" stroke="transparent" points="-4,4 -4,-866 950,-866 950,4 -4,4"/>
<!-- _diagram_info -->
<g id="node1" class="node">
<title>_diagram_info</title>
<text text-anchor="start" x="638" y="-99.6" font-family="Times,serif" font-size="13.00" fill="#000000">Controllers diagram</text>
<text text-anchor="start" x="638" y="-85.6" font-family="Times,serif" font-size="13.00" fill="#000000">Date: Jun 03 2020 &#45; 11:37</text>
<text text-anchor="start" x="638" y="-71.6" font-family="Times,serif" font-size="13.00" fill="#000000">Migration version: 20200407131637</text>
<text text-anchor="start" x="638" y="-57.6" font-family="Times,serif" font-size="13.00" fill="#000000">Generated by RailRoady 1.5.3</text>
<text text-anchor="start" x="638" y="-43.6" font-family="Times,serif" font-size="13.00" fill="#000000">http://railroady.prestonlee.com</text>
</g>
<!-- Api::TableTennisController -->
<g id="node2" class="node">
<title>Api::TableTennisController</title>
<path fill="none" stroke="#000000" d="M30,-.5C30,-.5 173,-.5 173,-.5 179,-.5 185,-6.5 185,-12.5 185,-12.5 185,-82.5 185,-82.5 185,-88.5 179,-94.5 173,-94.5 173,-94.5 30,-94.5 30,-94.5 24,-94.5 18,-88.5 18,-82.5 18,-82.5 18,-12.5 18,-12.5 18,-6.5 24,-.5 30,-.5"/>
<text text-anchor="middle" x="101.5" y="-79.3" font-family="Times,serif" font-size="14.00" fill="#000000">Api::TableTennisController</text>
<polyline fill="none" stroke="#000000" points="18,-71.5 185,-71.5 "/>
<text text-anchor="start" x="26" y="-56.3" font-family="Times,serif" font-size="14.00" fill="#000000">ping</text>
<polyline fill="none" stroke="#000000" points="18,-48.5 185,-48.5 "/>
<polyline fill="none" stroke="#000000" points="18,-24.5 185,-24.5 "/>
</g>
<!-- Api::UtilisateursController -->
<g id="node3" class="node">
<title>Api::UtilisateursController</title>
<path fill="none" stroke="#000000" d="M228,-.5C228,-.5 366,-.5 366,-.5 372,-.5 378,-6.5 378,-12.5 378,-12.5 378,-82.5 378,-82.5 378,-88.5 372,-94.5 366,-94.5 366,-94.5 228,-94.5 228,-94.5 222,-94.5 216,-88.5 216,-82.5 216,-82.5 216,-12.5 216,-12.5 216,-6.5 222,-.5 228,-.5"/>
<text text-anchor="middle" x="297" y="-79.3" font-family="Times,serif" font-size="14.00" fill="#000000">Api::UtilisateursController</text>
<polyline fill="none" stroke="#000000" points="216,-71.5 378,-71.5 "/>
<text text-anchor="start" x="224" y="-56.3" font-family="Times,serif" font-size="14.00" fill="#000000">index</text>
<polyline fill="none" stroke="#000000" points="216,-48.5 378,-48.5 "/>
<polyline fill="none" stroke="#000000" points="216,-24.5 378,-24.5 "/>
</g>
<!-- LieusController -->
<g id="node4" class="node">
<title>LieusController</title>
<path fill="none" stroke="#000000" d="M678,-648.5C678,-648.5 756,-648.5 756,-648.5 762,-648.5 768,-654.5 768,-660.5 768,-660.5 768,-849.5 768,-849.5 768,-855.5 762,-861.5 756,-861.5 756,-861.5 678,-861.5 678,-861.5 672,-861.5 666,-855.5 666,-849.5 666,-849.5 666,-660.5 666,-660.5 666,-654.5 672,-648.5 678,-648.5"/>
<text text-anchor="middle" x="717" y="-846.3" font-family="Times,serif" font-size="14.00" fill="#000000">LieusController</text>
<polyline fill="none" stroke="#000000" points="666,-838.5 768,-838.5 "/>
<text text-anchor="start" x="674" y="-823.3" font-family="Times,serif" font-size="14.00" fill="#000000">create</text>
<text text-anchor="start" x="674" y="-808.3" font-family="Times,serif" font-size="14.00" fill="#000000">destroy</text>
<text text-anchor="start" x="674" y="-793.3" font-family="Times,serif" font-size="14.00" fill="#000000">edit</text>
<text text-anchor="start" x="674" y="-778.3" font-family="Times,serif" font-size="14.00" fill="#000000">index</text>
<text text-anchor="start" x="674" y="-763.3" font-family="Times,serif" font-size="14.00" fill="#000000">new</text>
<text text-anchor="start" x="674" y="-748.3" font-family="Times,serif" font-size="14.00" fill="#000000">show</text>
<text text-anchor="start" x="674" y="-733.3" font-family="Times,serif" font-size="14.00" fill="#000000">update</text>
<polyline fill="none" stroke="#000000" points="666,-725.5 768,-725.5 "/>
<polyline fill="none" stroke="#000000" points="666,-701.5 768,-701.5 "/>
<text text-anchor="start" x="674" y="-686.3" font-family="Times,serif" font-size="14.00" fill="#000000">_layout</text>
<text text-anchor="start" x="674" y="-671.3" font-family="Times,serif" font-size="14.00" fill="#000000">find_lieu</text>
<text text-anchor="start" x="674" y="-656.3" font-family="Times,serif" font-size="14.00" fill="#000000">lieu_params</text>
</g>
<!-- AjoutsController -->
<g id="node5" class="node">
<title>AjoutsController</title>
<path fill="none" stroke="#000000" d="M498,-288.5C498,-288.5 582,-288.5 582,-288.5 588,-288.5 594,-294.5 594,-300.5 594,-300.5 594,-564.5 594,-564.5 594,-570.5 588,-576.5 582,-576.5 582,-576.5 498,-576.5 498,-576.5 492,-576.5 486,-570.5 486,-564.5 486,-564.5 486,-300.5 486,-300.5 486,-294.5 492,-288.5 498,-288.5"/>
<text text-anchor="middle" x="540" y="-561.3" font-family="Times,serif" font-size="14.00" fill="#000000">AjoutsController</text>
<polyline fill="none" stroke="#000000" points="486,-553.5 594,-553.5 "/>
<text text-anchor="start" x="494" y="-538.3" font-family="Times,serif" font-size="14.00" fill="#000000">create</text>
<text text-anchor="start" x="494" y="-523.3" font-family="Times,serif" font-size="14.00" fill="#000000">destroy</text>
<text text-anchor="start" x="494" y="-508.3" font-family="Times,serif" font-size="14.00" fill="#000000">edit</text>
<text text-anchor="start" x="494" y="-493.3" font-family="Times,serif" font-size="14.00" fill="#000000">index</text>
<text text-anchor="start" x="494" y="-478.3" font-family="Times,serif" font-size="14.00" fill="#000000">new</text>
<text text-anchor="start" x="494" y="-463.3" font-family="Times,serif" font-size="14.00" fill="#000000">update</text>
<text text-anchor="start" x="494" y="-448.3" font-family="Times,serif" font-size="14.00" fill="#000000">valider</text>
<polyline fill="none" stroke="#000000" points="486,-440.5 594,-440.5 "/>
<polyline fill="none" stroke="#000000" points="486,-416.5 594,-416.5 "/>
<text text-anchor="start" x="494" y="-401.3" font-family="Times,serif" font-size="14.00" fill="#000000">_layout</text>
<text text-anchor="start" x="494" y="-386.3" font-family="Times,serif" font-size="14.00" fill="#000000">ajout_params</text>
<text text-anchor="start" x="494" y="-371.3" font-family="Times,serif" font-size="14.00" fill="#000000">find_ajout</text>
<text text-anchor="start" x="494" y="-356.3" font-family="Times,serif" font-size="14.00" fill="#000000">find_classes</text>
<text text-anchor="start" x="494" y="-341.3" font-family="Times,serif" font-size="14.00" fill="#000000">find_etendre</text>
<text text-anchor="start" x="494" y="-326.3" font-family="Times,serif" font-size="14.00" fill="#000000">find_groupes</text>
<text text-anchor="start" x="494" y="-311.3" font-family="Times,serif" font-size="14.00" fill="#000000">find_utilisateurs</text>
<text text-anchor="start" x="494" y="-296.3" font-family="Times,serif" font-size="14.00" fill="#000000">find_works</text>
</g>
<!-- ServicesController -->
<g id="node6" class="node">
<title>ServicesController</title>
<path fill="none" stroke="#000000" d="M156,-378.5C156,-378.5 250,-378.5 250,-378.5 256,-378.5 262,-384.5 262,-390.5 262,-390.5 262,-579.5 262,-579.5 262,-585.5 256,-591.5 250,-591.5 250,-591.5 156,-591.5 156,-591.5 150,-591.5 144,-585.5 144,-579.5 144,-579.5 144,-390.5 144,-390.5 144,-384.5 150,-378.5 156,-378.5"/>
<text text-anchor="middle" x="203" y="-576.3" font-family="Times,serif" font-size="14.00" fill="#000000">ServicesController</text>
<polyline fill="none" stroke="#000000" points="144,-568.5 262,-568.5 "/>
<text text-anchor="start" x="152" y="-553.3" font-family="Times,serif" font-size="14.00" fill="#000000">create</text>
<text text-anchor="start" x="152" y="-538.3" font-family="Times,serif" font-size="14.00" fill="#000000">destroy</text>
<text text-anchor="start" x="152" y="-523.3" font-family="Times,serif" font-size="14.00" fill="#000000">edit</text>
<text text-anchor="start" x="152" y="-508.3" font-family="Times,serif" font-size="14.00" fill="#000000">index</text>
<text text-anchor="start" x="152" y="-493.3" font-family="Times,serif" font-size="14.00" fill="#000000">new</text>
<text text-anchor="start" x="152" y="-478.3" font-family="Times,serif" font-size="14.00" fill="#000000">show</text>
<text text-anchor="start" x="152" y="-463.3" font-family="Times,serif" font-size="14.00" fill="#000000">update</text>
<polyline fill="none" stroke="#000000" points="144,-455.5 262,-455.5 "/>
<polyline fill="none" stroke="#000000" points="144,-431.5 262,-431.5 "/>
<text text-anchor="start" x="152" y="-416.3" font-family="Times,serif" font-size="14.00" fill="#000000">_layout</text>
<text text-anchor="start" x="152" y="-401.3" font-family="Times,serif" font-size="14.00" fill="#000000">find_service</text>
<text text-anchor="start" x="152" y="-386.3" font-family="Times,serif" font-size="14.00" fill="#000000">service_params</text>
</g>
<!-- ClassesController -->
<g id="node7" class="node">
<title>ClassesController</title>
<path fill="none" stroke="#000000" d="M498,-612.5C498,-612.5 587,-612.5 587,-612.5 593,-612.5 599,-618.5 599,-624.5 599,-624.5 599,-813.5 599,-813.5 599,-819.5 593,-825.5 587,-825.5 587,-825.5 498,-825.5 498,-825.5 492,-825.5 486,-819.5 486,-813.5 486,-813.5 486,-624.5 486,-624.5 486,-618.5 492,-612.5 498,-612.5"/>
<text text-anchor="middle" x="542.5" y="-810.3" font-family="Times,serif" font-size="14.00" fill="#000000">ClassesController</text>
<polyline fill="none" stroke="#000000" points="486,-802.5 599,-802.5 "/>
<text text-anchor="start" x="494" y="-787.3" font-family="Times,serif" font-size="14.00" fill="#000000">create</text>
<text text-anchor="start" x="494" y="-772.3" font-family="Times,serif" font-size="14.00" fill="#000000">destroy</text>
<text text-anchor="start" x="494" y="-757.3" font-family="Times,serif" font-size="14.00" fill="#000000">edit</text>
<text text-anchor="start" x="494" y="-742.3" font-family="Times,serif" font-size="14.00" fill="#000000">index</text>
<text text-anchor="start" x="494" y="-727.3" font-family="Times,serif" font-size="14.00" fill="#000000">new</text>
<text text-anchor="start" x="494" y="-712.3" font-family="Times,serif" font-size="14.00" fill="#000000">show</text>
<text text-anchor="start" x="494" y="-697.3" font-family="Times,serif" font-size="14.00" fill="#000000">update</text>
<polyline fill="none" stroke="#000000" points="486,-689.5 599,-689.5 "/>
<polyline fill="none" stroke="#000000" points="486,-665.5 599,-665.5 "/>
<text text-anchor="start" x="494" y="-650.3" font-family="Times,serif" font-size="14.00" fill="#000000">_layout</text>
<text text-anchor="start" x="494" y="-635.3" font-family="Times,serif" font-size="14.00" fill="#000000">classe_params</text>
<text text-anchor="start" x="494" y="-620.3" font-family="Times,serif" font-size="14.00" fill="#000000">find_classe</text>
</g>
<!-- WorksController -->
<g id="node8" class="node">
<title>WorksController</title>
<path fill="none" stroke="#000000" d="M498,-36.5C498,-36.5 583,-36.5 583,-36.5 589,-36.5 595,-42.5 595,-48.5 595,-48.5 595,-237.5 595,-237.5 595,-243.5 589,-249.5 583,-249.5 583,-249.5 498,-249.5 498,-249.5 492,-249.5 486,-243.5 486,-237.5 486,-237.5 486,-48.5 486,-48.5 486,-42.5 492,-36.5 498,-36.5"/>
<text text-anchor="middle" x="540.5" y="-234.3" font-family="Times,serif" font-size="14.00" fill="#000000">WorksController</text>
<polyline fill="none" stroke="#000000" points="486,-226.5 595,-226.5 "/>
<text text-anchor="start" x="494" y="-211.3" font-family="Times,serif" font-size="14.00" fill="#000000">create</text>
<text text-anchor="start" x="494" y="-196.3" font-family="Times,serif" font-size="14.00" fill="#000000">destroy</text>
<text text-anchor="start" x="494" y="-181.3" font-family="Times,serif" font-size="14.00" fill="#000000">edit</text>
<text text-anchor="start" x="494" y="-166.3" font-family="Times,serif" font-size="14.00" fill="#000000">index</text>
<text text-anchor="start" x="494" y="-151.3" font-family="Times,serif" font-size="14.00" fill="#000000">new</text>
<text text-anchor="start" x="494" y="-136.3" font-family="Times,serif" font-size="14.00" fill="#000000">show</text>
<text text-anchor="start" x="494" y="-121.3" font-family="Times,serif" font-size="14.00" fill="#000000">update</text>
<polyline fill="none" stroke="#000000" points="486,-113.5 595,-113.5 "/>
<polyline fill="none" stroke="#000000" points="486,-89.5 595,-89.5 "/>
<text text-anchor="start" x="494" y="-74.3" font-family="Times,serif" font-size="14.00" fill="#000000">_layout</text>
<text text-anchor="start" x="494" y="-59.3" font-family="Times,serif" font-size="14.00" fill="#000000">find_work</text>
<text text-anchor="start" x="494" y="-44.3" font-family="Times,serif" font-size="14.00" fill="#000000">work_params</text>
</g>
<!-- ApiController -->
<g id="node9" class="node">
<title>ApiController</title>
<path fill="none" stroke="#000000" d="M804,-144.5C804,-144.5 934,-144.5 934,-144.5 940,-144.5 946,-150.5 946,-156.5 946,-156.5 946,-226.5 946,-226.5 946,-232.5 940,-238.5 934,-238.5 934,-238.5 804,-238.5 804,-238.5 798,-238.5 792,-232.5 792,-226.5 792,-226.5 792,-156.5 792,-156.5 792,-150.5 798,-144.5 804,-144.5"/>
<text text-anchor="middle" x="869" y="-223.3" font-family="Times,serif" font-size="14.00" fill="#000000">ApiController</text>
<polyline fill="none" stroke="#000000" points="792,-215.5 946,-215.5 "/>
<text text-anchor="start" x="800" y="-200.3" font-family="Times,serif" font-size="14.00" fill="#000000">format_numero_semaine</text>
<polyline fill="none" stroke="#000000" points="792,-192.5 946,-192.5 "/>
<polyline fill="none" stroke="#000000" points="792,-168.5 946,-168.5 "/>
</g>
<!-- AbsencesController -->
<g id="node10" class="node">
<title>AbsencesController</title>
<path fill="none" stroke="#000000" d="M156,-126.5C156,-126.5 256,-126.5 256,-126.5 262,-126.5 268,-132.5 268,-138.5 268,-138.5 268,-327.5 268,-327.5 268,-333.5 262,-339.5 256,-339.5 256,-339.5 156,-339.5 156,-339.5 150,-339.5 144,-333.5 144,-327.5 144,-327.5 144,-138.5 144,-138.5 144,-132.5 150,-126.5 156,-126.5"/>
<text text-anchor="middle" x="206" y="-324.3" font-family="Times,serif" font-size="14.00" fill="#000000">AbsencesController</text>
<polyline fill="none" stroke="#000000" points="144,-316.5 268,-316.5 "/>
<text text-anchor="start" x="152" y="-301.3" font-family="Times,serif" font-size="14.00" fill="#000000">create</text>
<text text-anchor="start" x="152" y="-286.3" font-family="Times,serif" font-size="14.00" fill="#000000">destroy</text>
<text text-anchor="start" x="152" y="-271.3" font-family="Times,serif" font-size="14.00" fill="#000000">edit</text>
<text text-anchor="start" x="152" y="-256.3" font-family="Times,serif" font-size="14.00" fill="#000000">index</text>
<text text-anchor="start" x="152" y="-241.3" font-family="Times,serif" font-size="14.00" fill="#000000">new</text>
<text text-anchor="start" x="152" y="-226.3" font-family="Times,serif" font-size="14.00" fill="#000000">show</text>
<text text-anchor="start" x="152" y="-211.3" font-family="Times,serif" font-size="14.00" fill="#000000">update</text>
<polyline fill="none" stroke="#000000" points="144,-203.5 268,-203.5 "/>
<polyline fill="none" stroke="#000000" points="144,-179.5 268,-179.5 "/>
<text text-anchor="start" x="152" y="-164.3" font-family="Times,serif" font-size="14.00" fill="#000000">_layout</text>
<text text-anchor="start" x="152" y="-149.3" font-family="Times,serif" font-size="14.00" fill="#000000">absence_params</text>
<text text-anchor="start" x="152" y="-134.3" font-family="Times,serif" font-size="14.00" fill="#000000">find_absence</text>
</g>
<!-- WorkingListsController -->
<g id="node11" class="node">
<title>WorkingListsController</title>
<path fill="none" stroke="#000000" d="M318,-234.5C318,-234.5 441,-234.5 441,-234.5 447,-234.5 453,-240.5 453,-246.5 453,-246.5 453,-480.5 453,-480.5 453,-486.5 447,-492.5 441,-492.5 441,-492.5 318,-492.5 318,-492.5 312,-492.5 306,-486.5 306,-480.5 306,-480.5 306,-246.5 306,-246.5 306,-240.5 312,-234.5 318,-234.5"/>
<text text-anchor="middle" x="379.5" y="-477.3" font-family="Times,serif" font-size="14.00" fill="#000000">WorkingListsController</text>
<polyline fill="none" stroke="#000000" points="306,-469.5 453,-469.5 "/>
<text text-anchor="start" x="314" y="-454.3" font-family="Times,serif" font-size="14.00" fill="#000000">create</text>
<text text-anchor="start" x="314" y="-439.3" font-family="Times,serif" font-size="14.00" fill="#000000">destroy</text>
<text text-anchor="start" x="314" y="-424.3" font-family="Times,serif" font-size="14.00" fill="#000000">edit</text>
<text text-anchor="start" x="314" y="-409.3" font-family="Times,serif" font-size="14.00" fill="#000000">index</text>
<text text-anchor="start" x="314" y="-394.3" font-family="Times,serif" font-size="14.00" fill="#000000">new</text>
<text text-anchor="start" x="314" y="-379.3" font-family="Times,serif" font-size="14.00" fill="#000000">show</text>
<text text-anchor="start" x="314" y="-364.3" font-family="Times,serif" font-size="14.00" fill="#000000">update</text>
<polyline fill="none" stroke="#000000" points="306,-356.5 453,-356.5 "/>
<polyline fill="none" stroke="#000000" points="306,-332.5 453,-332.5 "/>
<text text-anchor="start" x="314" y="-317.3" font-family="Times,serif" font-size="14.00" fill="#000000">_layout</text>
<text text-anchor="start" x="314" y="-302.3" font-family="Times,serif" font-size="14.00" fill="#000000">find_jours</text>
<text text-anchor="start" x="314" y="-287.3" font-family="Times,serif" font-size="14.00" fill="#000000">find_services</text>
<text text-anchor="start" x="314" y="-272.3" font-family="Times,serif" font-size="14.00" fill="#000000">find_working_list</text>
<text text-anchor="start" x="314" y="-257.3" font-family="Times,serif" font-size="14.00" fill="#000000">find_works</text>
<text text-anchor="start" x="314" y="-242.3" font-family="Times,serif" font-size="14.00" fill="#000000">working_list_params</text>
</g>
<!-- FermeturesController -->
<g id="node12" class="node">
<title>FermeturesController</title>
<path fill="none" stroke="#000000" d="M642,-144.5C642,-144.5 752,-144.5 752,-144.5 758,-144.5 764,-150.5 764,-156.5 764,-156.5 764,-345.5 764,-345.5 764,-351.5 758,-357.5 752,-357.5 752,-357.5 642,-357.5 642,-357.5 636,-357.5 630,-351.5 630,-345.5 630,-345.5 630,-156.5 630,-156.5 630,-150.5 636,-144.5 642,-144.5"/>
<text text-anchor="middle" x="697" y="-342.3" font-family="Times,serif" font-size="14.00" fill="#000000">FermeturesController</text>
<polyline fill="none" stroke="#000000" points="630,-334.5 764,-334.5 "/>
<text text-anchor="start" x="638" y="-319.3" font-family="Times,serif" font-size="14.00" fill="#000000">create</text>
<text text-anchor="start" x="638" y="-304.3" font-family="Times,serif" font-size="14.00" fill="#000000">destroy</text>
<text text-anchor="start" x="638" y="-289.3" font-family="Times,serif" font-size="14.00" fill="#000000">edit</text>
<text text-anchor="start" x="638" y="-274.3" font-family="Times,serif" font-size="14.00" fill="#000000">index</text>
<text text-anchor="start" x="638" y="-259.3" font-family="Times,serif" font-size="14.00" fill="#000000">new</text>
<text text-anchor="start" x="638" y="-244.3" font-family="Times,serif" font-size="14.00" fill="#000000">show</text>
<text text-anchor="start" x="638" y="-229.3" font-family="Times,serif" font-size="14.00" fill="#000000">update</text>
<polyline fill="none" stroke="#000000" points="630,-221.5 764,-221.5 "/>
<polyline fill="none" stroke="#000000" points="630,-197.5 764,-197.5 "/>
<text text-anchor="start" x="638" y="-182.3" font-family="Times,serif" font-size="14.00" fill="#000000">_layout</text>
<text text-anchor="start" x="638" y="-167.3" font-family="Times,serif" font-size="14.00" fill="#000000">fermeture_params</text>
<text text-anchor="start" x="638" y="-152.3" font-family="Times,serif" font-size="14.00" fill="#000000">find_fermeture</text>
</g>
<!-- HomeController -->
<g id="node13" class="node">
<title>HomeController</title>
<path fill="none" stroke="#000000" d="M12,-234.5C12,-234.5 94,-234.5 94,-234.5 100,-234.5 106,-240.5 106,-246.5 106,-246.5 106,-330.5 106,-330.5 106,-336.5 100,-342.5 94,-342.5 94,-342.5 12,-342.5 12,-342.5 6,-342.5 0,-336.5 0,-330.5 0,-330.5 0,-246.5 0,-246.5 0,-240.5 6,-234.5 12,-234.5"/>
<text text-anchor="middle" x="53" y="-327.3" font-family="Times,serif" font-size="14.00" fill="#000000">HomeController</text>
<polyline fill="none" stroke="#000000" points="0,-319.5 106,-319.5 "/>
<text text-anchor="start" x="8" y="-304.3" font-family="Times,serif" font-size="14.00" fill="#000000">admin</text>
<text text-anchor="start" x="8" y="-289.3" font-family="Times,serif" font-size="14.00" fill="#000000">index</text>
<polyline fill="none" stroke="#000000" points="0,-281.5 106,-281.5 "/>
<polyline fill="none" stroke="#000000" points="0,-257.5 106,-257.5 "/>
<text text-anchor="start" x="8" y="-242.3" font-family="Times,serif" font-size="14.00" fill="#000000">_layout</text>
</g>
<!-- ApplicationController -->
<g id="node14" class="node">
<title>ApplicationController</title>
<path fill="none" stroke="#000000" d="M804,-270.5C804,-270.5 934,-270.5 934,-270.5 940,-270.5 946,-276.5 946,-282.5 946,-282.5 946,-366.5 946,-366.5 946,-372.5 940,-378.5 934,-378.5 934,-378.5 804,-378.5 804,-378.5 798,-378.5 792,-372.5 792,-366.5 792,-366.5 792,-282.5 792,-282.5 792,-276.5 798,-270.5 804,-270.5"/>
<text text-anchor="middle" x="869" y="-363.3" font-family="Times,serif" font-size="14.00" fill="#000000">ApplicationController</text>
<polyline fill="none" stroke="#000000" points="792,-355.5 946,-355.5 "/>
<text text-anchor="start" x="800" y="-340.3" font-family="Times,serif" font-size="14.00" fill="#000000">format_numero_semaine</text>
<text text-anchor="start" x="800" y="-325.3" font-family="Times,serif" font-size="14.00" fill="#000000">semaines_at</text>
<polyline fill="none" stroke="#000000" points="792,-317.5 946,-317.5 "/>
<polyline fill="none" stroke="#000000" points="792,-293.5 946,-293.5 "/>
<text text-anchor="start" x="800" y="-278.3" font-family="Times,serif" font-size="14.00" fill="#000000">_layout</text>
</g>
<!-- JoursController -->
<g id="node15" class="node">
<title>JoursController</title>
<path fill="none" stroke="#000000" d="M12,-378.5C12,-378.5 89,-378.5 89,-378.5 95,-378.5 101,-384.5 101,-390.5 101,-390.5 101,-579.5 101,-579.5 101,-585.5 95,-591.5 89,-591.5 89,-591.5 12,-591.5 12,-591.5 6,-591.5 0,-585.5 0,-579.5 0,-579.5 0,-390.5 0,-390.5 0,-384.5 6,-378.5 12,-378.5"/>
<text text-anchor="middle" x="50.5" y="-576.3" font-family="Times,serif" font-size="14.00" fill="#000000">JoursController</text>
<polyline fill="none" stroke="#000000" points="0,-568.5 101,-568.5 "/>
<text text-anchor="start" x="8" y="-553.3" font-family="Times,serif" font-size="14.00" fill="#000000">create</text>
<text text-anchor="start" x="8" y="-538.3" font-family="Times,serif" font-size="14.00" fill="#000000">destroy</text>
<text text-anchor="start" x="8" y="-523.3" font-family="Times,serif" font-size="14.00" fill="#000000">edit</text>
<text text-anchor="start" x="8" y="-508.3" font-family="Times,serif" font-size="14.00" fill="#000000">index</text>
<text text-anchor="start" x="8" y="-493.3" font-family="Times,serif" font-size="14.00" fill="#000000">new</text>
<text text-anchor="start" x="8" y="-478.3" font-family="Times,serif" font-size="14.00" fill="#000000">show</text>
<text text-anchor="start" x="8" y="-463.3" font-family="Times,serif" font-size="14.00" fill="#000000">update</text>
<polyline fill="none" stroke="#000000" points="0,-455.5 101,-455.5 "/>
<polyline fill="none" stroke="#000000" points="0,-431.5 101,-431.5 "/>
<text text-anchor="start" x="8" y="-416.3" font-family="Times,serif" font-size="14.00" fill="#000000">_layout</text>
<text text-anchor="start" x="8" y="-401.3" font-family="Times,serif" font-size="14.00" fill="#000000">find_jour</text>
<text text-anchor="start" x="8" y="-386.3" font-family="Times,serif" font-size="14.00" fill="#000000">jour_params</text>
</g>
<!-- TypeAbsencesController -->
<g id="node16" class="node">
<title>TypeAbsencesController</title>
<path fill="none" stroke="#000000" d="M318,-522.5C318,-522.5 446,-522.5 446,-522.5 452,-522.5 458,-528.5 458,-534.5 458,-534.5 458,-723.5 458,-723.5 458,-729.5 452,-735.5 446,-735.5 446,-735.5 318,-735.5 318,-735.5 312,-735.5 306,-729.5 306,-723.5 306,-723.5 306,-534.5 306,-534.5 306,-528.5 312,-522.5 318,-522.5"/>
<text text-anchor="middle" x="382" y="-720.3" font-family="Times,serif" font-size="14.00" fill="#000000">TypeAbsencesController</text>
<polyline fill="none" stroke="#000000" points="306,-712.5 458,-712.5 "/>
<text text-anchor="start" x="314" y="-697.3" font-family="Times,serif" font-size="14.00" fill="#000000">create</text>
<text text-anchor="start" x="314" y="-682.3" font-family="Times,serif" font-size="14.00" fill="#000000">destroy</text>
<text text-anchor="start" x="314" y="-667.3" font-family="Times,serif" font-size="14.00" fill="#000000">edit</text>
<text text-anchor="start" x="314" y="-652.3" font-family="Times,serif" font-size="14.00" fill="#000000">index</text>
<text text-anchor="start" x="314" y="-637.3" font-family="Times,serif" font-size="14.00" fill="#000000">new</text>
<text text-anchor="start" x="314" y="-622.3" font-family="Times,serif" font-size="14.00" fill="#000000">show</text>
<text text-anchor="start" x="314" y="-607.3" font-family="Times,serif" font-size="14.00" fill="#000000">update</text>
<polyline fill="none" stroke="#000000" points="306,-599.5 458,-599.5 "/>
<polyline fill="none" stroke="#000000" points="306,-575.5 458,-575.5 "/>
<text text-anchor="start" x="314" y="-560.3" font-family="Times,serif" font-size="14.00" fill="#000000">_layout</text>
<text text-anchor="start" x="314" y="-545.3" font-family="Times,serif" font-size="14.00" fill="#000000">find_type_absence</text>
<text text-anchor="start" x="314" y="-530.3" font-family="Times,serif" font-size="14.00" fill="#000000">type_absence_params</text>
</g>
<!-- UtilisateursController -->
<g id="node17" class="node">
<title>UtilisateursController</title>
<path fill="none" stroke="#000000" d="M642,-396.5C642,-396.5 752,-396.5 752,-396.5 758,-396.5 764,-402.5 764,-408.5 764,-408.5 764,-597.5 764,-597.5 764,-603.5 758,-609.5 752,-609.5 752,-609.5 642,-609.5 642,-609.5 636,-609.5 630,-603.5 630,-597.5 630,-597.5 630,-408.5 630,-408.5 630,-402.5 636,-396.5 642,-396.5"/>
<text text-anchor="middle" x="697" y="-594.3" font-family="Times,serif" font-size="14.00" fill="#000000">UtilisateursController</text>
<polyline fill="none" stroke="#000000" points="630,-586.5 764,-586.5 "/>
<text text-anchor="start" x="638" y="-571.3" font-family="Times,serif" font-size="14.00" fill="#000000">create</text>
<text text-anchor="start" x="638" y="-556.3" font-family="Times,serif" font-size="14.00" fill="#000000">destroy</text>
<text text-anchor="start" x="638" y="-541.3" font-family="Times,serif" font-size="14.00" fill="#000000">edit</text>
<text text-anchor="start" x="638" y="-526.3" font-family="Times,serif" font-size="14.00" fill="#000000">index</text>
<text text-anchor="start" x="638" y="-511.3" font-family="Times,serif" font-size="14.00" fill="#000000">new</text>
<text text-anchor="start" x="638" y="-496.3" font-family="Times,serif" font-size="14.00" fill="#000000">show</text>
<text text-anchor="start" x="638" y="-481.3" font-family="Times,serif" font-size="14.00" fill="#000000">update</text>
<polyline fill="none" stroke="#000000" points="630,-473.5 764,-473.5 "/>
<polyline fill="none" stroke="#000000" points="630,-449.5 764,-449.5 "/>
<text text-anchor="start" x="638" y="-434.3" font-family="Times,serif" font-size="14.00" fill="#000000">_layout</text>
<text text-anchor="start" x="638" y="-419.3" font-family="Times,serif" font-size="14.00" fill="#000000">find_utilisateur</text>
<text text-anchor="start" x="638" y="-404.3" font-family="Times,serif" font-size="14.00" fill="#000000">utilisateur_params</text>
</g>
<!-- GroupesController -->
<g id="node18" class="node">
<title>GroupesController</title>
<path fill="none" stroke="#000000" d="M156,-630.5C156,-630.5 250,-630.5 250,-630.5 256,-630.5 262,-636.5 262,-642.5 262,-642.5 262,-831.5 262,-831.5 262,-837.5 256,-843.5 250,-843.5 250,-843.5 156,-843.5 156,-843.5 150,-843.5 144,-837.5 144,-831.5 144,-831.5 144,-642.5 144,-642.5 144,-636.5 150,-630.5 156,-630.5"/>
<text text-anchor="middle" x="203" y="-828.3" font-family="Times,serif" font-size="14.00" fill="#000000">GroupesController</text>
<polyline fill="none" stroke="#000000" points="144,-820.5 262,-820.5 "/>
<text text-anchor="start" x="152" y="-805.3" font-family="Times,serif" font-size="14.00" fill="#000000">create</text>
<text text-anchor="start" x="152" y="-790.3" font-family="Times,serif" font-size="14.00" fill="#000000">destroy</text>
<text text-anchor="start" x="152" y="-775.3" font-family="Times,serif" font-size="14.00" fill="#000000">edit</text>
<text text-anchor="start" x="152" y="-760.3" font-family="Times,serif" font-size="14.00" fill="#000000">index</text>
<text text-anchor="start" x="152" y="-745.3" font-family="Times,serif" font-size="14.00" fill="#000000">new</text>
<text text-anchor="start" x="152" y="-730.3" font-family="Times,serif" font-size="14.00" fill="#000000">show</text>
<text text-anchor="start" x="152" y="-715.3" font-family="Times,serif" font-size="14.00" fill="#000000">update</text>
<polyline fill="none" stroke="#000000" points="144,-707.5 262,-707.5 "/>
<polyline fill="none" stroke="#000000" points="144,-683.5 262,-683.5 "/>
<text text-anchor="start" x="152" y="-668.3" font-family="Times,serif" font-size="14.00" fill="#000000">_layout</text>
<text text-anchor="start" x="152" y="-653.3" font-family="Times,serif" font-size="14.00" fill="#000000">find_groupe</text>
<text text-anchor="start" x="152" y="-638.3" font-family="Times,serif" font-size="14.00" fill="#000000">groupe_params</text>
</g>
</g>
</svg>
