<?xml version="1.0" encoding="UTF-8" standalone="no"?>
<!DOCTYPE svg PUBLIC "-//W3C//DTD SVG 1.1//EN"
 "http://www.w3.org/Graphics/SVG/1.1/DTD/svg11.dtd">
<!-- Generated by graphviz version 2.40.1 (20161225.0304)
 -->
<!-- Title: models_diagram Pages: 1 -->
<svg width="482pt" height="446pt"
 viewBox="0.00 0.00 482.20 446.00" xmlns="http://www.w3.org/2000/svg" xmlns:xlink="http://www.w3.org/1999/xlink">
<g id="graph0" class="graph" transform="scale(1 1) rotate(0) translate(4 442)">
<title>models_diagram</title>
<polygon fill="transparent" stroke="transparent" points="-4,4 -4,-442 478.1972,-442 478.1972,4 -4,4"/>
<!-- _diagram_info -->
<g id="node1" class="node">
<title>_diagram_info</title>
<text text-anchor="start" x="8" y="-423.6" font-family="Times,serif" font-size="13.00" fill="#000000">Models diagram</text>
<text text-anchor="start" x="8" y="-409.6" font-family="Times,serif" font-size="13.00" fill="#000000">Date: Jan 23 2020 &#45; 15:00</text>
<text text-anchor="start" x="8" y="-395.6" font-family="Times,serif" font-size="13.00" fill="#000000">Migration version: 20200116141500</text>
<text text-anchor="start" x="8" y="-381.6" font-family="Times,serif" font-size="13.00" fill="#000000">Generated by RailRoady 1.5.3</text>
<text text-anchor="start" x="8" y="-367.6" font-family="Times,serif" font-size="13.00" fill="#000000">http://railroady.prestonlee.com</text>
</g>
<!-- Job -->
<g id="node2" class="node">
<title>Job</title>
<ellipse fill="none" stroke="#000000" cx="339" cy="-90" rx="27" ry="18"/>
<text text-anchor="middle" x="339" y="-86.3" font-family="Times,serif" font-size="14.00" fill="#000000">Job</text>
</g>
<!-- WorkingList -->
<g id="node7" class="node">
<title>WorkingList</title>
<ellipse fill="none" stroke="#000000" cx="377" cy="-18" rx="55.7903" ry="18"/>
<text text-anchor="middle" x="377" y="-14.3" font-family="Times,serif" font-size="14.00" fill="#000000">WorkingList</text>
</g>
<!-- Job&#45;&gt;WorkingList -->
<g id="edge1" class="edge">
<title>Job&#45;&gt;WorkingList</title>
<path fill="none" stroke="#fad7c2" d="M351.7817,-65.782C355.323,-59.0721 359.1883,-51.7485 362.8049,-44.8959"/>
<ellipse fill="none" stroke="#fad7c2" cx="349.8725" cy="-69.3995" rx="4" ry="4"/>
<polygon fill="#fad7c2" stroke="#fad7c2" points="362.8613,-44.7891 371.5086,-38.0457 365.1951,-40.3672 367.5289,-35.9453 367.5289,-35.9453 367.5289,-35.9453 365.1951,-40.3672 363.5492,-33.8448 362.8613,-44.7891 362.8613,-44.7891"/>
</g>
<!-- ApplicationRecord -->
<g id="node3" class="node">
<title>ApplicationRecord</title>
<ellipse fill="none" stroke="#000000" cx="381" cy="-399" rx="77.1866" ry="18"/>
<text text-anchor="middle" x="381" y="-395.3" font-family="Times,serif" font-size="14.00" fill="#000000">ApplicationRecord</text>
</g>
<!-- Groupe -->
<g id="node4" class="node">
<title>Groupe</title>
<ellipse fill="none" stroke="#000000" cx="411" cy="-306" rx="37.0935" ry="18"/>
<text text-anchor="middle" x="411" y="-302.3" font-family="Times,serif" font-size="14.00" fill="#000000">Groupe</text>
</g>
<!-- Utilisateur -->
<g id="node9" class="node">
<title>Utilisateur</title>
<ellipse fill="none" stroke="#000000" cx="259" cy="-234" rx="48.1917" ry="18"/>
<text text-anchor="middle" x="259" y="-230.3" font-family="Times,serif" font-size="14.00" fill="#000000">Utilisateur</text>
</g>
<!-- Groupe&#45;&gt;Utilisateur -->
<g id="edge2" class="edge">
<title>Groupe&#45;&gt;Utilisateur</title>
<path fill="none" stroke="#2f4cc2" d="M376.6621,-289.7347C353.3598,-278.6968 322.4952,-264.0767 298.2241,-252.5798"/>
<ellipse fill="none" stroke="#2f4cc2" cx="380.5604" cy="-291.5812" rx="4" ry="4"/>
<polygon fill="#2f4cc2" stroke="#2f4cc2" points="297.9777,-252.4632 290.8667,-244.1154 293.459,-250.3227 288.9403,-248.1822 288.9403,-248.1822 288.9403,-248.1822 293.459,-250.3227 287.0139,-252.2491 297.9777,-252.4632 297.9777,-252.4632"/>
</g>
<!-- Work -->
<g id="node11" class="node">
<title>Work</title>
<ellipse fill="none" stroke="#000000" cx="443" cy="-90" rx="31.3957" ry="18"/>
<text text-anchor="middle" x="443" y="-86.3" font-family="Times,serif" font-size="14.00" fill="#000000">Work</text>
</g>
<!-- Groupe&#45;&gt;Work -->
<g id="edge3" class="edge">
<title>Groupe&#45;&gt;Work</title>
<path fill="none" stroke="#1ed5bc" d="M433.2847,-283.5036C440.7395,-274.4764 448.1321,-263.4906 452,-252 467.1635,-206.9528 458.4273,-150.9078 450.7098,-117.9341"/>
<ellipse fill="none" stroke="#1ed5bc" cx="430.5178" cy="-286.6896" rx="4" ry="4"/>
<polygon fill="#1ed5bc" stroke="#1ed5bc" points="450.674,-117.7893 452.6396,-107.001 449.4727,-112.9358 448.2714,-108.0822 448.2714,-108.0822 448.2714,-108.0822 449.4727,-112.9358 443.9032,-109.1634 450.674,-117.7893 450.674,-117.7893"/>
</g>
<!-- Conge -->
<g id="node5" class="node">
<title>Conge</title>
<ellipse fill="none" stroke="#000000" cx="190" cy="-162" rx="33.5952" ry="18"/>
<text text-anchor="middle" x="190" y="-158.3" font-family="Times,serif" font-size="14.00" fill="#000000">Conge</text>
</g>
<!-- Service -->
<g id="node6" class="node">
<title>Service</title>
<ellipse fill="none" stroke="#000000" cx="259" cy="-306" rx="37.0935" ry="18"/>
<text text-anchor="middle" x="259" y="-302.3" font-family="Times,serif" font-size="14.00" fill="#000000">Service</text>
</g>
<!-- Service&#45;&gt;Utilisateur -->
<g id="edge4" class="edge">
<title>Service&#45;&gt;Utilisateur</title>
<path fill="none" stroke="#afa439" d="M259,-279.8144C259,-274.2775 259,-268.4053 259,-262.7785"/>
<ellipse fill="none" stroke="#afa439" cx="259" cy="-283.8314" rx="4" ry="4"/>
<polygon fill="#afa439" stroke="#afa439" points="259.0001,-262.4133 263.5,-252.4132 259,-257.4133 259,-252.4133 259,-252.4133 259,-252.4133 259,-257.4133 254.5,-252.4133 259.0001,-262.4133 259.0001,-262.4133"/>
</g>
<!-- Absence -->
<g id="node8" class="node">
<title>Absence</title>
<ellipse fill="none" stroke="#000000" cx="384" cy="-162" rx="40.8928" ry="18"/>
<text text-anchor="middle" x="384" y="-158.3" font-family="Times,serif" font-size="14.00" fill="#000000">Absence</text>
</g>
<!-- Utilisateur&#45;&gt;Conge -->
<g id="edge6" class="edge">
<title>Utilisateur&#45;&gt;Conge</title>
<path fill="none" stroke="#360fed" d="M236.9018,-210.941C229.2991,-203.0078 220.7696,-194.1074 213.0901,-186.094"/>
<ellipse fill="none" stroke="#360fed" cx="239.8803" cy="-214.049" rx="4" ry="4"/>
<polygon fill="#360fed" stroke="#360fed" points="212.6788,-185.6648 209.0087,-175.3313 209.2193,-182.0549 205.7597,-178.4449 205.7597,-178.4449 205.7597,-178.4449 209.2193,-182.0549 202.5108,-181.5585 212.6788,-185.6648 212.6788,-185.6648"/>
</g>
<!-- Utilisateur&#45;&gt;Absence -->
<g id="edge7" class="edge">
<title>Utilisateur&#45;&gt;Absence</title>
<path fill="none" stroke="#c421e9" d="M292.6278,-214.6304C310.3666,-204.4128 332.0824,-191.9045 349.8922,-181.6461"/>
<ellipse fill="none" stroke="#c421e9" cx="288.9754" cy="-216.7341" rx="4" ry="4"/>
<polygon fill="#c421e9" stroke="#c421e9" points="350.1425,-181.502 361.0539,-180.4101 354.4751,-179.0063 358.8078,-176.5107 358.8078,-176.5107 358.8078,-176.5107 354.4751,-179.0063 356.5617,-172.6113 350.1425,-181.502 350.1425,-181.502"/>
</g>
<!-- Semaine -->
<g id="node10" class="node">
<title>Semaine</title>
<ellipse fill="none" stroke="#000000" cx="283" cy="-162" rx="41.6928" ry="18"/>
<text text-anchor="middle" x="283" y="-158.3" font-family="Times,serif" font-size="14.00" fill="#000000">Semaine</text>
</g>
<!-- Utilisateur&#45;&gt;Semaine -->
<g id="edge5" class="edge">
<title>Utilisateur&#45;&gt;Semaine</title>
<path fill="none" stroke="#83004f" d="M267.6772,-207.9684C269.6652,-202.0044 271.7852,-195.6443 273.7946,-189.6162"/>
<ellipse fill="none" stroke="#83004f" cx="266.3212" cy="-212.0366" rx="4" ry="4"/>
<polygon fill="#83004f" stroke="#83004f" points="273.8665,-189.4002 281.2979,-181.3365 275.4477,-184.6568 277.0289,-179.9134 277.0289,-179.9134 277.0289,-179.9134 275.4477,-184.6568 272.7598,-178.4904 273.8665,-189.4002 273.8665,-189.4002"/>
</g>
<!-- Semaine&#45;&gt;Job -->
<g id="edge8" class="edge">
<title>Semaine&#45;&gt;Job</title>
<path fill="none" stroke="#cfc479" d="M301.3975,-138.3461C307.3615,-130.6781 313.9867,-122.1599 319.994,-114.4362"/>
<ellipse fill="none" stroke="#cfc479" cx="298.727" cy="-141.7796" rx="4" ry="4"/>
<polygon fill="#cfc479" stroke="#cfc479" points="320.0701,-114.3385 329.7616,-109.2077 323.1398,-110.3917 326.2095,-106.4449 326.2095,-106.4449 326.2095,-106.4449 323.1398,-110.3917 322.6574,-103.6822 320.0701,-114.3385 320.0701,-114.3385"/>
</g>
<!-- Work&#45;&gt;WorkingList -->
<g id="edge9" class="edge">
<title>Work&#45;&gt;WorkingList</title>
<path fill="none" stroke="#517210" d="M422.9318,-68.1074C415.6575,-60.1718 407.3874,-51.1498 399.8884,-42.9691"/>
<ellipse fill="none" stroke="#517210" cx="425.6495" cy="-71.0722" rx="4" ry="4"/>
<polygon fill="#517210" stroke="#517210" points="399.7498,-42.818 396.3098,-32.4056 396.3712,-39.1322 392.9925,-35.4464 392.9925,-35.4464 392.9925,-35.4464 396.3712,-39.1322 389.6753,-38.4872 399.7498,-42.818 399.7498,-42.818"/>
</g>
<!-- TypeAbsence -->
<g id="node12" class="node">
<title>TypeAbsence</title>
<ellipse fill="none" stroke="#000000" cx="384" cy="-234" rx="59.2899" ry="18"/>
<text text-anchor="middle" x="384" y="-230.3" font-family="Times,serif" font-size="14.00" fill="#000000">TypeAbsence</text>
</g>
<!-- TypeAbsence&#45;&gt;Absence -->
<g id="edge10" class="edge">
<title>TypeAbsence&#45;&gt;Absence</title>
<path fill="none" stroke="#477476" d="M384,-207.8144C384,-202.2775 384,-196.4053 384,-190.7785"/>
<ellipse fill="none" stroke="#477476" cx="384" cy="-211.8314" rx="4" ry="4"/>
<polygon fill="#477476" stroke="#477476" points="384.0001,-190.4133 388.5,-180.4132 384,-185.4133 384,-180.4133 384,-180.4133 384,-180.4133 384,-185.4133 379.5,-180.4133 384.0001,-190.4133 384.0001,-190.4133"/>
</g>
<!-- Lieu -->
<g id="node13" class="node">
<title>Lieu</title>
<ellipse fill="none" stroke="#000000" cx="259" cy="-399" rx="27" ry="18"/>
<text text-anchor="middle" x="259" y="-395.3" font-family="Times,serif" font-size="14.00" fill="#000000">Lieu</text>
</g>
<!-- Lieu&#45;&gt;Service -->
<g id="edge11" class="edge">
<title>Lieu&#45;&gt;Service</title>
<path fill="none" stroke="#c1f2c7" d="M259,-372.4432C259,-360.4479 259,-346.268 259,-334.0949"/>
<ellipse fill="none" stroke="#c1f2c7" cx="259" cy="-376.6262" rx="4" ry="4"/>
<polygon fill="#c1f2c7" stroke="#c1f2c7" points="259.0001,-334.0192 263.5,-324.0191 259,-329.0192 259,-324.0192 259,-324.0192 259,-324.0192 259,-329.0192 254.5,-324.0192 259.0001,-334.0192 259.0001,-334.0192"/>
</g>
</g>
</svg>
