<?xml version="1.0" encoding="UTF-8" standalone="no"?>
<!DOCTYPE svg PUBLIC "-//W3C//DTD SVG 1.1//EN"
 "http://www.w3.org/Graphics/SVG/1.1/DTD/svg11.dtd">
<!-- Generated by graphviz version 2.40.1 (20161225.0304)
 -->
<!-- Title: models_diagram Pages: 1 -->
<svg width="546pt" height="374pt"
 viewBox="0.00 0.00 546.34 374.00" xmlns="http://www.w3.org/2000/svg" xmlns:xlink="http://www.w3.org/1999/xlink">
<g id="graph0" class="graph" transform="scale(1 1) rotate(0) translate(4 370)">
<title>models_diagram</title>
<polygon fill="transparent" stroke="transparent" points="-4,4 -4,-370 542.3431,-370 542.3431,4 -4,4"/>
<!-- _diagram_info -->
<g id="node1" class="node">
<title>_diagram_info</title>
<text text-anchor="start" x="8" y="-351.6" font-family="Times,serif" font-size="13.00" fill="#000000">Models diagram</text>
<text text-anchor="start" x="8" y="-337.6" font-family="Times,serif" font-size="13.00" fill="#000000">Date: Jun 03 2020 &#45; 11:37</text>
<text text-anchor="start" x="8" y="-323.6" font-family="Times,serif" font-size="13.00" fill="#000000">Migration version: 20200407131637</text>
<text text-anchor="start" x="8" y="-309.6" font-family="Times,serif" font-size="13.00" fill="#000000">Generated by RailRoady 1.5.3</text>
<text text-anchor="start" x="8" y="-295.6" font-family="Times,serif" font-size="13.00" fill="#000000">http://railroady.prestonlee.com</text>
</g>
<!-- Ajout -->
<g id="node2" class="node">
<title>Ajout</title>
<ellipse fill="none" stroke="#000000" cx="263" cy="-327" rx="30.5947" ry="18"/>
<text text-anchor="middle" x="263" y="-323.3" font-family="Times,serif" font-size="14.00" fill="#000000">Ajout</text>
</g>
<!-- Classe -->
<g id="node3" class="node">
<title>Classe</title>
<ellipse fill="none" stroke="#000000" cx="68" cy="-234" rx="33.5952" ry="18"/>
<text text-anchor="middle" x="68" y="-230.3" font-family="Times,serif" font-size="14.00" fill="#000000">Classe</text>
</g>
<!-- Work -->
<g id="node11" class="node">
<title>Work</title>
<ellipse fill="none" stroke="#000000" cx="68" cy="-162" rx="31.3957" ry="18"/>
<text text-anchor="middle" x="68" y="-158.3" font-family="Times,serif" font-size="14.00" fill="#000000">Work</text>
</g>
<!-- Classe&#45;&gt;Work -->
<g id="edge1" class="edge">
<title>Classe&#45;&gt;Work</title>
<path fill="none" stroke="#f5b545" d="M68,-207.8144C68,-202.2775 68,-196.4053 68,-190.7785"/>
<ellipse fill="none" stroke="#f5b545" cx="68" cy="-211.8314" rx="4" ry="4"/>
<polygon fill="#f5b545" stroke="#f5b545" points="68.0001,-190.4133 72.5,-180.4132 68,-185.4133 68,-180.4133 68,-180.4133 68,-180.4133 68,-185.4133 63.5,-180.4133 68.0001,-190.4133 68.0001,-190.4133"/>
</g>
<!-- ApplicationRecord -->
<g id="node4" class="node">
<title>ApplicationRecord</title>
<ellipse fill="none" stroke="#000000" cx="461" cy="-327" rx="77.1866" ry="18"/>
<text text-anchor="middle" x="461" y="-323.3" font-family="Times,serif" font-size="14.00" fill="#000000">ApplicationRecord</text>
</g>
<!-- Groupe -->
<g id="node5" class="node">
<title>Groupe</title>
<ellipse fill="none" stroke="#000000" cx="221" cy="-234" rx="37.0935" ry="18"/>
<text text-anchor="middle" x="221" y="-230.3" font-family="Times,serif" font-size="14.00" fill="#000000">Groupe</text>
</g>
<!-- Utilisateur -->
<g id="node10" class="node">
<title>Utilisateur</title>
<ellipse fill="none" stroke="#000000" cx="301" cy="-162" rx="48.1917" ry="18"/>
<text text-anchor="middle" x="301" y="-158.3" font-family="Times,serif" font-size="14.00" fill="#000000">Utilisateur</text>
</g>
<!-- Groupe&#45;&gt;Utilisateur -->
<g id="edge2" class="edge">
<title>Groupe&#45;&gt;Utilisateur</title>
<path fill="none" stroke="#e240aa" d="M244.8088,-212.5721C254.3126,-204.0187 265.2833,-194.145 274.9947,-185.4047"/>
<ellipse fill="none" stroke="#e240aa" cx="241.7278" cy="-215.345" rx="4" ry="4"/>
<polygon fill="#e240aa" stroke="#e240aa" points="275.0281,-185.3747 285.4714,-182.0299 278.7446,-182.0299 282.461,-178.6851 282.461,-178.6851 282.461,-178.6851 278.7446,-182.0299 279.4507,-175.3402 275.0281,-185.3747 275.0281,-185.3747"/>
</g>
<!-- Groupe&#45;&gt;Work -->
<g id="edge3" class="edge">
<title>Groupe&#45;&gt;Work</title>
<path fill="none" stroke="#b243bf" d="M186.9527,-217.9777C161.5,-206 126.8723,-189.7046 101.5421,-177.7845"/>
<ellipse fill="none" stroke="#b243bf" cx="190.7302" cy="-219.7553" rx="4" ry="4"/>
<polygon fill="#b243bf" stroke="#b243bf" points="101.376,-177.7064 94.244,-169.3767 96.8519,-175.5774 92.3278,-173.4484 92.3278,-173.4484 92.3278,-173.4484 96.8519,-175.5774 90.4117,-177.5201 101.376,-177.7064 101.376,-177.7064"/>
</g>
<!-- Service -->
<g id="node6" class="node">
<title>Service</title>
<ellipse fill="none" stroke="#000000" cx="339" cy="-234" rx="37.0935" ry="18"/>
<text text-anchor="middle" x="339" y="-230.3" font-family="Times,serif" font-size="14.00" fill="#000000">Service</text>
</g>
<!-- Fermeture -->
<g id="node7" class="node">
<title>Fermeture</title>
<ellipse fill="none" stroke="#000000" cx="452" cy="-162" rx="47.3916" ry="18"/>
<text text-anchor="middle" x="452" y="-158.3" font-family="Times,serif" font-size="14.00" fill="#000000">Fermeture</text>
</g>
<!-- Service&#45;&gt;Fermeture -->
<g id="edge5" class="edge">
<title>Service&#45;&gt;Fermeture</title>
<path fill="none" stroke="#8f0f2d" d="M368.6092,-215.134C384.0747,-205.2798 403.0459,-193.192 418.984,-183.0367"/>
<ellipse fill="none" stroke="#8f0f2d" cx="364.9691" cy="-217.4533" rx="4" ry="4"/>
<polygon fill="#8f0f2d" stroke="#8f0f2d" points="419.0515,-182.9938 429.9032,-181.4153 423.2683,-180.307 427.485,-177.6202 427.485,-177.6202 427.485,-177.6202 423.2683,-180.307 425.0669,-173.8251 419.0515,-182.9938 419.0515,-182.9938"/>
</g>
<!-- Service&#45;&gt;Utilisateur -->
<g id="edge4" class="edge">
<title>Service&#45;&gt;Utilisateur</title>
<path fill="none" stroke="#97fac1" d="M325.8679,-209.1182C322.4523,-202.6465 318.7562,-195.6434 315.2843,-189.0651"/>
<ellipse fill="none" stroke="#97fac1" cx="327.7397" cy="-212.6647" rx="4" ry="4"/>
<polygon fill="#97fac1" stroke="#97fac1" points="315.0845,-188.6864 314.3966,-177.7421 312.7507,-184.2645 310.4169,-179.8425 310.4169,-179.8425 310.4169,-179.8425 312.7507,-184.2645 306.4372,-181.943 315.0845,-188.6864 315.0845,-188.6864"/>
</g>
<!-- Service&#45;&gt;Work -->
<g id="edge6" class="edge">
<title>Service&#45;&gt;Work</title>
<path fill="none" stroke="#6ccd72" d="M298.1009,-223.607C287.9495,-221.0738 277.088,-218.4027 267,-216 196.5163,-199.2125 176.7141,-202.9816 108,-180 105.7454,-179.2459 103.4458,-178.4081 101.1458,-177.5182"/>
<ellipse fill="none" stroke="#6ccd72" cx="302.1816" cy="-224.6293" rx="4" ry="4"/>
<polygon fill="#6ccd72" stroke="#6ccd72" points="101.0405,-177.4746 93.5243,-169.4898 96.4212,-175.5609 91.8019,-173.6472 91.8019,-173.6472 91.8019,-173.6472 96.4212,-175.5609 90.0796,-177.8046 101.0405,-177.4746 101.0405,-177.4746"/>
</g>
<!-- Jour -->
<g id="node14" class="node">
<title>Jour</title>
<ellipse fill="none" stroke="#000000" cx="301" cy="-90" rx="27" ry="18"/>
<text text-anchor="middle" x="301" y="-86.3" font-family="Times,serif" font-size="14.00" fill="#000000">Jour</text>
</g>
<!-- Service&#45;&gt;Jour -->
<g id="edge7" class="edge">
<title>Service&#45;&gt;Jour</title>
<path fill="none" stroke="#ca1471" d="M352.1743,-208.99C360.0739,-190.4677 366.9996,-164.9229 358,-144 351.9321,-129.8929 340.1663,-117.7444 328.8926,-108.5627"/>
<ellipse fill="none" stroke="#ca1471" cx="350.4297" cy="-212.8235" rx="4" ry="4"/>
<polygon fill="#ca1471" stroke="#ca1471" points="328.8009,-108.4925 323.5937,-98.8418 324.83,-105.4541 320.8591,-102.4156 320.8591,-102.4156 320.8591,-102.4156 324.83,-105.4541 318.1245,-105.9895 328.8009,-108.4925 328.8009,-108.4925"/>
</g>
<!-- WorkingList -->
<g id="node8" class="node">
<title>WorkingList</title>
<ellipse fill="none" stroke="#000000" cx="204" cy="-18" rx="55.7903" ry="18"/>
<text text-anchor="middle" x="204" y="-14.3" font-family="Times,serif" font-size="14.00" fill="#000000">WorkingList</text>
</g>
<!-- Absence -->
<g id="node9" class="node">
<title>Absence</title>
<ellipse fill="none" stroke="#000000" cx="195" cy="-90" rx="40.8928" ry="18"/>
<text text-anchor="middle" x="195" y="-86.3" font-family="Times,serif" font-size="14.00" fill="#000000">Absence</text>
</g>
<!-- Utilisateur&#45;&gt;Absence -->
<g id="edge9" class="edge">
<title>Utilisateur&#45;&gt;Absence</title>
<path fill="none" stroke="#e0058b" d="M270.7312,-141.4401C256.6878,-131.9011 240.0174,-120.5779 225.897,-110.9867"/>
<ellipse fill="none" stroke="#e0058b" cx="274.429" cy="-143.9517" rx="4" ry="4"/>
<polygon fill="#e0058b" stroke="#e0058b" points="225.7531,-110.8889 220.0094,-101.5476 221.617,-108.0795 217.4809,-105.27 217.4809,-105.27 217.4809,-105.27 221.617,-108.0795 214.9524,-108.9925 225.7531,-110.8889 225.7531,-110.8889"/>
</g>
<!-- Utilisateur&#45;&gt;Jour -->
<g id="edge8" class="edge">
<title>Utilisateur&#45;&gt;Jour</title>
<path fill="none" stroke="#41a6cf" d="M301,-135.8144C301,-130.2775 301,-124.4053 301,-118.7785"/>
<ellipse fill="none" stroke="#41a6cf" cx="301" cy="-139.8314" rx="4" ry="4"/>
<polygon fill="#41a6cf" stroke="#41a6cf" points="301.0001,-118.4133 305.5,-108.4132 301,-113.4133 301,-108.4133 301,-108.4133 301,-108.4133 301,-113.4133 296.5,-108.4133 301.0001,-118.4133 301.0001,-118.4133"/>
</g>
<!-- Work&#45;&gt;WorkingList -->
<g id="edge10" class="edge">
<title>Work&#45;&gt;WorkingList</title>
<path fill="none" stroke="#bd927b" d="M86.3017,-139.0829C101.4608,-120.4829 123.8657,-93.8538 145,-72 154.9999,-61.6597 166.5679,-50.8455 176.7976,-41.6341"/>
<ellipse fill="none" stroke="#bd927b" cx="83.5793" cy="-142.4413" rx="4" ry="4"/>
<polygon fill="#bd927b" stroke="#bd927b" points="176.8461,-41.5909 187.3054,-38.2962 180.5786,-38.2639 184.3112,-34.937 184.3112,-34.937 184.3112,-34.937 180.5786,-38.2639 181.3169,-31.5777 176.8461,-41.5909 176.8461,-41.5909"/>
</g>
<!-- TypeAbsence -->
<g id="node12" class="node">
<title>TypeAbsence</title>
<ellipse fill="none" stroke="#000000" cx="176" cy="-162" rx="59.2899" ry="18"/>
<text text-anchor="middle" x="176" y="-158.3" font-family="Times,serif" font-size="14.00" fill="#000000">TypeAbsence</text>
</g>
<!-- TypeAbsence&#45;&gt;Absence -->
<g id="edge11" class="edge">
<title>TypeAbsence&#45;&gt;Absence</title>
<path fill="none" stroke="#f201aa" d="M182.8695,-135.9684C184.4433,-130.0044 186.1217,-123.6443 187.7124,-117.6162"/>
<ellipse fill="none" stroke="#f201aa" cx="181.8152" cy="-139.9638" rx="4" ry="4"/>
<polygon fill="#f201aa" stroke="#f201aa" points="187.7212,-117.5824 194.6239,-109.0616 188.997,-112.7479 190.2728,-107.9134 190.2728,-107.9134 190.2728,-107.9134 188.997,-112.7479 185.9218,-106.7652 187.7212,-117.5824 187.7212,-117.5824"/>
</g>
<!-- Lieu -->
<g id="node13" class="node">
<title>Lieu</title>
<ellipse fill="none" stroke="#000000" cx="339" cy="-327" rx="27" ry="18"/>
<text text-anchor="middle" x="339" y="-323.3" font-family="Times,serif" font-size="14.00" fill="#000000">Lieu</text>
</g>
<!-- Lieu&#45;&gt;Service -->
<g id="edge12" class="edge">
<title>Lieu&#45;&gt;Service</title>
<path fill="none" stroke="#b9110b" d="M339,-300.4432C339,-288.4479 339,-274.268 339,-262.0949"/>
<ellipse fill="none" stroke="#b9110b" cx="339" cy="-304.6262" rx="4" ry="4"/>
<polygon fill="#b9110b" stroke="#b9110b" points="339.0001,-262.0192 343.5,-252.0191 339,-257.0192 339,-252.0192 339,-252.0192 339,-252.0192 339,-257.0192 334.5,-252.0192 339.0001,-262.0192 339.0001,-262.0192"/>
</g>
<!-- Jour&#45;&gt;WorkingList -->
<g id="edge13" class="edge">
<title>Jour&#45;&gt;WorkingList</title>
<path fill="none" stroke="#99c757" d="M276.0137,-71.4534C263.3981,-62.0893 247.9824,-50.6467 234.6556,-40.7546"/>
<ellipse fill="none" stroke="#99c757" cx="279.5432" cy="-74.0733" rx="4" ry="4"/>
<polygon fill="#99c757" stroke="#99c757" points="234.2797,-40.4757 228.9321,-30.9021 230.2648,-37.4955 226.25,-34.5154 226.25,-34.5154 226.25,-34.5154 230.2648,-37.4955 223.5679,-38.1288 234.2797,-40.4757 234.2797,-40.4757"/>
</g>
</g>
</svg>
