<?xml version="1.0" encoding="UTF-8" standalone="no"?>
<!DOCTYPE svg PUBLIC "-//W3C//DTD SVG 1.1//EN"
 "http://www.w3.org/Graphics/SVG/1.1/DTD/svg11.dtd">
<!-- Generated by graphviz version 2.40.1 (20161225.0304)
 -->
<!-- Title: models_diagram Pages: 1 -->
<svg width="1076pt" height="942pt"
 viewBox="0.00 0.00 1076.00 942.00" xmlns="http://www.w3.org/2000/svg" xmlns:xlink="http://www.w3.org/1999/xlink">
<g id="graph0" class="graph" transform="scale(1 1) rotate(0) translate(4 938)">
<title>models_diagram</title>
<polygon fill="transparent" stroke="transparent" points="-4,4 -4,-938 1072,-938 1072,4 -4,4"/>
<!-- _diagram_info -->
<g id="node1" class="node">
<title>_diagram_info</title>
<text text-anchor="start" x="150" y="-860.1" font-family="Times,serif" font-size="13.00" fill="#000000">Models diagram</text>
<text text-anchor="start" x="150" y="-846.1" font-family="Times,serif" font-size="13.00" fill="#000000">Date: Jun 03 2020 &#45; 11:37</text>
<text text-anchor="start" x="150" y="-832.1" font-family="Times,serif" font-size="13.00" fill="#000000">Migration version: 20200407131637</text>
<text text-anchor="start" x="150" y="-818.1" font-family="Times,serif" font-size="13.00" fill="#000000">Generated by RailRoady 1.5.3</text>
<text text-anchor="start" x="150" y="-804.1" font-family="Times,serif" font-size="13.00" fill="#000000">http://railroady.prestonlee.com</text>
</g>
<!-- Ajout -->
<g id="node2" class="node">
<title>Ajout</title>
<path fill="none" stroke="#000000" d="M386,-737.5C386,-737.5 606,-737.5 606,-737.5 612,-737.5 618,-743.5 618,-749.5 618,-749.5 618,-921.5 618,-921.5 618,-927.5 612,-933.5 606,-933.5 606,-933.5 386,-933.5 386,-933.5 380,-933.5 374,-927.5 374,-921.5 374,-921.5 374,-749.5 374,-749.5 374,-743.5 380,-737.5 386,-737.5"/>
<text text-anchor="middle" x="496" y="-918.3" font-family="Times,serif" font-size="14.00" fill="#000000">Ajout</text>
<polyline fill="none" stroke="#000000" points="374,-910.5 618,-910.5 "/>
<text text-anchor="start" x="382" y="-895.3" font-family="Times,serif" font-size="14.00" fill="#000000">id :bigint</text>
<text text-anchor="start" x="382" y="-880.3" font-family="Times,serif" font-size="14.00" fill="#000000">utilisateur_id :bigint</text>
<text text-anchor="start" x="382" y="-865.3" font-family="Times,serif" font-size="14.00" fill="#000000">date :date</text>
<text text-anchor="start" x="382" y="-850.3" font-family="Times,serif" font-size="14.00" fill="#000000">am_pm :boolean</text>
<text text-anchor="start" x="382" y="-835.3" font-family="Times,serif" font-size="14.00" fill="#000000">work1 :integer</text>
<text text-anchor="start" x="382" y="-820.3" font-family="Times,serif" font-size="14.00" fill="#000000">work2 :integer</text>
<text text-anchor="start" x="382" y="-805.3" font-family="Times,serif" font-size="14.00" fill="#000000">work3 :integer</text>
<text text-anchor="start" x="382" y="-790.3" font-family="Times,serif" font-size="14.00" fill="#000000">work4 :integer</text>
<text text-anchor="start" x="382" y="-775.3" font-family="Times,serif" font-size="14.00" fill="#000000">work5 :integer</text>
<text text-anchor="start" x="382" y="-760.3" font-family="Times,serif" font-size="14.00" fill="#000000">created_at :timestamp without time zone</text>
<text text-anchor="start" x="382" y="-745.3" font-family="Times,serif" font-size="14.00" fill="#000000">updated_at :timestamp without time zone</text>
</g>
<!-- Classe -->
<g id="node3" class="node">
<title>Classe</title>
<path fill="none" stroke="#000000" d="M12,-587C12,-587 232,-587 232,-587 238,-587 244,-593 244,-599 244,-599 244,-681 244,-681 244,-687 238,-693 232,-693 232,-693 12,-693 12,-693 6,-693 0,-687 0,-681 0,-681 0,-599 0,-599 0,-593 6,-587 12,-587"/>
<text text-anchor="middle" x="122" y="-677.8" font-family="Times,serif" font-size="14.00" fill="#000000">Classe</text>
<polyline fill="none" stroke="#000000" points="0,-670 244,-670 "/>
<text text-anchor="start" x="8" y="-654.8" font-family="Times,serif" font-size="14.00" fill="#000000">id :bigint</text>
<text text-anchor="start" x="8" y="-639.8" font-family="Times,serif" font-size="14.00" fill="#000000">nom :character varying</text>
<text text-anchor="start" x="8" y="-624.8" font-family="Times,serif" font-size="14.00" fill="#000000">description :character varying</text>
<text text-anchor="start" x="8" y="-609.8" font-family="Times,serif" font-size="14.00" fill="#000000">created_at :timestamp without time zone</text>
<text text-anchor="start" x="8" y="-594.8" font-family="Times,serif" font-size="14.00" fill="#000000">updated_at :timestamp without time zone</text>
</g>
<!-- Work -->
<g id="node11" class="node">
<title>Work</title>
<path fill="none" stroke="#000000" d="M12,-369C12,-369 232,-369 232,-369 238,-369 244,-375 244,-381 244,-381 244,-523 244,-523 244,-529 238,-535 232,-535 232,-535 12,-535 12,-535 6,-535 0,-529 0,-523 0,-523 0,-381 0,-381 0,-375 6,-369 12,-369"/>
<text text-anchor="middle" x="122" y="-519.8" font-family="Times,serif" font-size="14.00" fill="#000000">Work</text>
<polyline fill="none" stroke="#000000" points="0,-512 244,-512 "/>
<text text-anchor="start" x="8" y="-496.8" font-family="Times,serif" font-size="14.00" fill="#000000">id :bigint</text>
<text text-anchor="start" x="8" y="-481.8" font-family="Times,serif" font-size="14.00" fill="#000000">groupe_id :bigint</text>
<text text-anchor="start" x="8" y="-466.8" font-family="Times,serif" font-size="14.00" fill="#000000">classe_id :bigint</text>
<text text-anchor="start" x="8" y="-451.8" font-family="Times,serif" font-size="14.00" fill="#000000">service_id :bigint</text>
<text text-anchor="start" x="8" y="-436.8" font-family="Times,serif" font-size="14.00" fill="#000000">nom :character varying</text>
<text text-anchor="start" x="8" y="-421.8" font-family="Times,serif" font-size="14.00" fill="#000000">code :character varying</text>
<text text-anchor="start" x="8" y="-406.8" font-family="Times,serif" font-size="14.00" fill="#000000">description :character varying</text>
<text text-anchor="start" x="8" y="-391.8" font-family="Times,serif" font-size="14.00" fill="#000000">created_at :timestamp without time zone</text>
<text text-anchor="start" x="8" y="-376.8" font-family="Times,serif" font-size="14.00" fill="#000000">updated_at :timestamp without time zone</text>
</g>
<!-- Classe&#45;&gt;Work -->
<g id="edge1" class="edge">
<title>Classe&#45;&gt;Work</title>
<path fill="none" stroke="#bc2486" d="M122,-578.8222C122,-568.0555 122,-556.6318 122,-545.2233"/>
<ellipse fill="none" stroke="#bc2486" cx="122" cy="-582.8806" rx="4" ry="4"/>
<polygon fill="#bc2486" stroke="#bc2486" points="122.0001,-545.2185 126.5,-535.2185 122,-540.2185 122,-535.2185 122,-535.2185 122,-535.2185 122,-540.2185 117.5,-535.2186 122.0001,-545.2185 122.0001,-545.2185"/>
</g>
<!-- ApplicationRecord -->
<g id="node4" class="node">
<title>ApplicationRecord</title>
<ellipse fill="none" stroke="#000000" cx="975" cy="-835.5" rx="77.1866" ry="18"/>
<text text-anchor="middle" x="975" y="-831.8" font-family="Times,serif" font-size="14.00" fill="#000000">ApplicationRecord</text>
</g>
<!-- Groupe -->
<g id="node5" class="node">
<title>Groupe</title>
<path fill="none" stroke="#000000" d="M349,-587C349,-587 569,-587 569,-587 575,-587 581,-593 581,-599 581,-599 581,-681 581,-681 581,-687 575,-693 569,-693 569,-693 349,-693 349,-693 343,-693 337,-687 337,-681 337,-681 337,-599 337,-599 337,-593 343,-587 349,-587"/>
<text text-anchor="middle" x="459" y="-677.8" font-family="Times,serif" font-size="14.00" fill="#000000">Groupe</text>
<polyline fill="none" stroke="#000000" points="337,-670 581,-670 "/>
<text text-anchor="start" x="345" y="-654.8" font-family="Times,serif" font-size="14.00" fill="#000000">id :bigint</text>
<text text-anchor="start" x="345" y="-639.8" font-family="Times,serif" font-size="14.00" fill="#000000">nom :character varying</text>
<text text-anchor="start" x="345" y="-624.8" font-family="Times,serif" font-size="14.00" fill="#000000">description :character varying</text>
<text text-anchor="start" x="345" y="-609.8" font-family="Times,serif" font-size="14.00" fill="#000000">created_at :timestamp without time zone</text>
<text text-anchor="start" x="345" y="-594.8" font-family="Times,serif" font-size="14.00" fill="#000000">updated_at :timestamp without time zone</text>
</g>
<!-- Utilisateur -->
<g id="node10" class="node">
<title>Utilisateur</title>
<path fill="none" stroke="#000000" d="M536,-361.5C536,-361.5 756,-361.5 756,-361.5 762,-361.5 768,-367.5 768,-373.5 768,-373.5 768,-530.5 768,-530.5 768,-536.5 762,-542.5 756,-542.5 756,-542.5 536,-542.5 536,-542.5 530,-542.5 524,-536.5 524,-530.5 524,-530.5 524,-373.5 524,-373.5 524,-367.5 530,-361.5 536,-361.5"/>
<text text-anchor="middle" x="646" y="-527.3" font-family="Times,serif" font-size="14.00" fill="#000000">Utilisateur</text>
<polyline fill="none" stroke="#000000" points="524,-519.5 768,-519.5 "/>
<text text-anchor="start" x="532" y="-504.3" font-family="Times,serif" font-size="14.00" fill="#000000">id :bigint</text>
<text text-anchor="start" x="532" y="-489.3" font-family="Times,serif" font-size="14.00" fill="#000000">groupe_id :bigint</text>
<text text-anchor="start" x="532" y="-474.3" font-family="Times,serif" font-size="14.00" fill="#000000">service_id :bigint</text>
<text text-anchor="start" x="532" y="-459.3" font-family="Times,serif" font-size="14.00" fill="#000000">prenom :character varying</text>
<text text-anchor="start" x="532" y="-444.3" font-family="Times,serif" font-size="14.00" fill="#000000">nom :character varying</text>
<text text-anchor="start" x="532" y="-429.3" font-family="Times,serif" font-size="14.00" fill="#000000">email :character varying</text>
<text text-anchor="start" x="532" y="-414.3" font-family="Times,serif" font-size="14.00" fill="#000000">phone :character varying</text>
<text text-anchor="start" x="532" y="-399.3" font-family="Times,serif" font-size="14.00" fill="#000000">gsm :character varying</text>
<text text-anchor="start" x="532" y="-384.3" font-family="Times,serif" font-size="14.00" fill="#000000">created_at :timestamp without time zone</text>
<text text-anchor="start" x="532" y="-369.3" font-family="Times,serif" font-size="14.00" fill="#000000">updated_at :timestamp without time zone</text>
</g>
<!-- Groupe&#45;&gt;Utilisateur -->
<g id="edge2" class="edge">
<title>Groupe&#45;&gt;Utilisateur</title>
<path fill="none" stroke="#da77b9" d="M517.7052,-580.9809C527.5458,-571.0876 537.9862,-560.5914 548.4941,-550.0273"/>
<ellipse fill="none" stroke="#da77b9" cx="514.6578" cy="-584.0446" rx="4" ry="4"/>
<polygon fill="#da77b9" stroke="#da77b9" points="548.7209,-549.7993 558.9636,-545.8829 552.247,-546.2543 555.7731,-542.7094 555.7731,-542.7094 555.7731,-542.7094 552.247,-546.2543 552.5827,-539.5359 548.7209,-549.7993 548.7209,-549.7993"/>
</g>
<!-- Groupe&#45;&gt;Work -->
<g id="edge3" class="edge">
<title>Groupe&#45;&gt;Work</title>
<path fill="none" stroke="#4146a5" d="M330.1518,-583.3876C304.1987,-570.8585 277.4079,-557.0921 253,-543 251.4749,-542.1195 249.9447,-541.2265 248.4107,-540.3224"/>
<ellipse fill="none" stroke="#4146a5" cx="333.8407" cy="-585.1575" rx="4" ry="4"/>
<polygon fill="#4146a5" stroke="#4146a5" points="248.1651,-540.175 241.9065,-531.1705 243.8779,-537.602 239.5908,-535.0289 239.5908,-535.0289 239.5908,-535.0289 243.8779,-537.602 237.2751,-538.8874 248.1651,-540.175 248.1651,-540.175"/>
</g>
<!-- Service -->
<g id="node6" class="node">
<title>Service</title>
<path fill="none" stroke="#000000" d="M648,-579.5C648,-579.5 868,-579.5 868,-579.5 874,-579.5 880,-585.5 880,-591.5 880,-591.5 880,-688.5 880,-688.5 880,-694.5 874,-700.5 868,-700.5 868,-700.5 648,-700.5 648,-700.5 642,-700.5 636,-694.5 636,-688.5 636,-688.5 636,-591.5 636,-591.5 636,-585.5 642,-579.5 648,-579.5"/>
<text text-anchor="middle" x="758" y="-685.3" font-family="Times,serif" font-size="14.00" fill="#000000">Service</text>
<polyline fill="none" stroke="#000000" points="636,-677.5 880,-677.5 "/>
<text text-anchor="start" x="644" y="-662.3" font-family="Times,serif" font-size="14.00" fill="#000000">id :bigint</text>
<text text-anchor="start" x="644" y="-647.3" font-family="Times,serif" font-size="14.00" fill="#000000">lieu_id :bigint</text>
<text text-anchor="start" x="644" y="-632.3" font-family="Times,serif" font-size="14.00" fill="#000000">nom :character varying</text>
<text text-anchor="start" x="644" y="-617.3" font-family="Times,serif" font-size="14.00" fill="#000000">description :character varying</text>
<text text-anchor="start" x="644" y="-602.3" font-family="Times,serif" font-size="14.00" fill="#000000">created_at :timestamp without time zone</text>
<text text-anchor="start" x="644" y="-587.3" font-family="Times,serif" font-size="14.00" fill="#000000">updated_at :timestamp without time zone</text>
</g>
<!-- Fermeture -->
<g id="node7" class="node">
<title>Fermeture</title>
<path fill="none" stroke="#000000" d="M836,-376.5C836,-376.5 1056,-376.5 1056,-376.5 1062,-376.5 1068,-382.5 1068,-388.5 1068,-388.5 1068,-515.5 1068,-515.5 1068,-521.5 1062,-527.5 1056,-527.5 1056,-527.5 836,-527.5 836,-527.5 830,-527.5 824,-521.5 824,-515.5 824,-515.5 824,-388.5 824,-388.5 824,-382.5 830,-376.5 836,-376.5"/>
<text text-anchor="middle" x="946" y="-512.3" font-family="Times,serif" font-size="14.00" fill="#000000">Fermeture</text>
<polyline fill="none" stroke="#000000" points="824,-504.5 1068,-504.5 "/>
<text text-anchor="start" x="832" y="-489.3" font-family="Times,serif" font-size="14.00" fill="#000000">id :bigint</text>
<text text-anchor="start" x="832" y="-474.3" font-family="Times,serif" font-size="14.00" fill="#000000">nom :character varying</text>
<text text-anchor="start" x="832" y="-459.3" font-family="Times,serif" font-size="14.00" fill="#000000">date :date</text>
<text text-anchor="start" x="832" y="-444.3" font-family="Times,serif" font-size="14.00" fill="#000000">date_fin :date</text>
<text text-anchor="start" x="832" y="-429.3" font-family="Times,serif" font-size="14.00" fill="#000000">note :character varying</text>
<text text-anchor="start" x="832" y="-414.3" font-family="Times,serif" font-size="14.00" fill="#000000">service_id :bigint</text>
<text text-anchor="start" x="832" y="-399.3" font-family="Times,serif" font-size="14.00" fill="#000000">created_at :timestamp without time zone</text>
<text text-anchor="start" x="832" y="-384.3" font-family="Times,serif" font-size="14.00" fill="#000000">updated_at :timestamp without time zone</text>
</g>
<!-- Service&#45;&gt;Fermeture -->
<g id="edge5" class="edge">
<title>Service&#45;&gt;Fermeture</title>
<path fill="none" stroke="#28f1be" d="M824.3922,-573.6078C836.9576,-561.0424 850.2453,-547.7547 863.2421,-534.7579"/>
<ellipse fill="none" stroke="#28f1be" cx="821.3477" cy="-576.6523" rx="4" ry="4"/>
<polygon fill="#28f1be" stroke="#28f1be" points="863.3551,-534.6449 873.6082,-530.7558 866.8907,-531.1093 870.4262,-527.5738 870.4262,-527.5738 870.4262,-527.5738 866.8907,-531.1093 867.2442,-524.3918 863.3551,-534.6449 863.3551,-534.6449"/>
</g>
<!-- Service&#45;&gt;Utilisateur -->
<g id="edge4" class="edge">
<title>Service&#45;&gt;Utilisateur</title>
<path fill="none" stroke="#e1731e" d="M717.7731,-572.4762C713.6979,-565.6357 709.5013,-558.5915 705.2799,-551.5055"/>
<ellipse fill="none" stroke="#e1731e" cx="719.8988" cy="-576.0444" rx="4" ry="4"/>
<polygon fill="#e1731e" stroke="#e1731e" points="705.0447,-551.1106 703.7925,-540.2165 702.4856,-546.8151 699.9266,-542.5196 699.9266,-542.5196 699.9266,-542.5196 702.4856,-546.8151 696.0606,-544.8227 705.0447,-551.1106 705.0447,-551.1106"/>
</g>
<!-- Service&#45;&gt;Work -->
<g id="edge6" class="edge">
<title>Service&#45;&gt;Work</title>
<path fill="none" stroke="#5f98ad" d="M627.7677,-589.2585C615.1238,-585.38 602.3925,-581.8671 590,-579 443.2464,-545.0475 394.1444,-595.6083 253,-543 249.8862,-541.8394 246.7765,-540.5877 243.6774,-539.2559"/>
<ellipse fill="none" stroke="#5f98ad" cx="631.8079" cy="-590.5232" rx="4" ry="4"/>
<polygon fill="#5f98ad" stroke="#5f98ad" points="243.5158,-539.1823 236.2858,-530.9374 238.9669,-537.1069 234.4179,-535.0315 234.4179,-535.0315 234.4179,-535.0315 238.9669,-537.1069 232.5501,-539.1255 243.5158,-539.1823 243.5158,-539.1823"/>
</g>
<!-- Jour -->
<g id="node14" class="node">
<title>Jour</title>
<path fill="none" stroke="#000000" d="M536,-143.5C536,-143.5 756,-143.5 756,-143.5 762,-143.5 768,-149.5 768,-155.5 768,-155.5 768,-312.5 768,-312.5 768,-318.5 762,-324.5 756,-324.5 756,-324.5 536,-324.5 536,-324.5 530,-324.5 524,-318.5 524,-312.5 524,-312.5 524,-155.5 524,-155.5 524,-149.5 530,-143.5 536,-143.5"/>
<text text-anchor="middle" x="646" y="-309.3" font-family="Times,serif" font-size="14.00" fill="#000000">Jour</text>
<polyline fill="none" stroke="#000000" points="524,-301.5 768,-301.5 "/>
<text text-anchor="start" x="532" y="-286.3" font-family="Times,serif" font-size="14.00" fill="#000000">id :bigint</text>
<text text-anchor="start" x="532" y="-271.3" font-family="Times,serif" font-size="14.00" fill="#000000">utilisateur_id :bigint</text>
<text text-anchor="start" x="532" y="-256.3" font-family="Times,serif" font-size="14.00" fill="#000000">service_id :bigint</text>
<text text-anchor="start" x="532" y="-241.3" font-family="Times,serif" font-size="14.00" fill="#000000">numero_semaine :character varying</text>
<text text-anchor="start" x="532" y="-226.3" font-family="Times,serif" font-size="14.00" fill="#000000">date :date</text>
<text text-anchor="start" x="532" y="-211.3" font-family="Times,serif" font-size="14.00" fill="#000000">numero_jour :integer</text>
<text text-anchor="start" x="532" y="-196.3" font-family="Times,serif" font-size="14.00" fill="#000000">am_pm :boolean</text>
<text text-anchor="start" x="532" y="-181.3" font-family="Times,serif" font-size="14.00" fill="#000000">note :character varying</text>
<text text-anchor="start" x="532" y="-166.3" font-family="Times,serif" font-size="14.00" fill="#000000">created_at :timestamp without time zone</text>
<text text-anchor="start" x="532" y="-151.3" font-family="Times,serif" font-size="14.00" fill="#000000">updated_at :timestamp without time zone</text>
</g>
<!-- Service&#45;&gt;Jour -->
<g id="edge7" class="edge">
<title>Service&#45;&gt;Jour</title>
<path fill="none" stroke="#2333a6" d="M779.4867,-571.3761C793.8852,-513.0695 805.515,-428.3597 777,-361 772.8401,-351.1733 767.5066,-341.7336 761.3803,-332.7493"/>
<ellipse fill="none" stroke="#2333a6" cx="778.4263" cy="-575.5469" rx="4" ry="4"/>
<polygon fill="#2333a6" stroke="#2333a6" points="761.3794,-332.748 759.1961,-322.0016 758.4608,-328.6881 755.5423,-324.6283 755.5423,-324.6283 755.5423,-324.6283 758.4608,-328.6881 751.8884,-327.2551 761.3794,-332.748 761.3794,-332.748"/>
</g>
<!-- WorkingList -->
<g id="node8" class="node">
<title>WorkingList</title>
<path fill="none" stroke="#000000" d="M274,-.5C274,-.5 494,-.5 494,-.5 500,-.5 506,-6.5 506,-12.5 506,-12.5 506,-94.5 506,-94.5 506,-100.5 500,-106.5 494,-106.5 494,-106.5 274,-106.5 274,-106.5 268,-106.5 262,-100.5 262,-94.5 262,-94.5 262,-12.5 262,-12.5 262,-6.5 268,-.5 274,-.5"/>
<text text-anchor="middle" x="384" y="-91.3" font-family="Times,serif" font-size="14.00" fill="#000000">WorkingList</text>
<polyline fill="none" stroke="#000000" points="262,-83.5 506,-83.5 "/>
<text text-anchor="start" x="270" y="-68.3" font-family="Times,serif" font-size="14.00" fill="#000000">id :bigint</text>
<text text-anchor="start" x="270" y="-53.3" font-family="Times,serif" font-size="14.00" fill="#000000">work_id :bigint</text>
<text text-anchor="start" x="270" y="-38.3" font-family="Times,serif" font-size="14.00" fill="#000000">jour_id :bigint</text>
<text text-anchor="start" x="270" y="-23.3" font-family="Times,serif" font-size="14.00" fill="#000000">created_at :timestamp without time zone</text>
<text text-anchor="start" x="270" y="-8.3" font-family="Times,serif" font-size="14.00" fill="#000000">updated_at :timestamp without time zone</text>
</g>
<!-- Absence -->
<g id="node9" class="node">
<title>Absence</title>
<path fill="none" stroke="#000000" d="M274,-158.5C274,-158.5 494,-158.5 494,-158.5 500,-158.5 506,-164.5 506,-170.5 506,-170.5 506,-297.5 506,-297.5 506,-303.5 500,-309.5 494,-309.5 494,-309.5 274,-309.5 274,-309.5 268,-309.5 262,-303.5 262,-297.5 262,-297.5 262,-170.5 262,-170.5 262,-164.5 268,-158.5 274,-158.5"/>
<text text-anchor="middle" x="384" y="-294.3" font-family="Times,serif" font-size="14.00" fill="#000000">Absence</text>
<polyline fill="none" stroke="#000000" points="262,-286.5 506,-286.5 "/>
<text text-anchor="start" x="270" y="-271.3" font-family="Times,serif" font-size="14.00" fill="#000000">id :bigint</text>
<text text-anchor="start" x="270" y="-256.3" font-family="Times,serif" font-size="14.00" fill="#000000">type_absence_id :bigint</text>
<text text-anchor="start" x="270" y="-241.3" font-family="Times,serif" font-size="14.00" fill="#000000">utilisateur_id :bigint</text>
<text text-anchor="start" x="270" y="-226.3" font-family="Times,serif" font-size="14.00" fill="#000000">date :date</text>
<text text-anchor="start" x="270" y="-211.3" font-family="Times,serif" font-size="14.00" fill="#000000">date_fin :date</text>
<text text-anchor="start" x="270" y="-196.3" font-family="Times,serif" font-size="14.00" fill="#000000">remarque :character varying</text>
<text text-anchor="start" x="270" y="-181.3" font-family="Times,serif" font-size="14.00" fill="#000000">created_at :timestamp without time zone</text>
<text text-anchor="start" x="270" y="-166.3" font-family="Times,serif" font-size="14.00" fill="#000000">updated_at :timestamp without time zone</text>
</g>
<!-- Utilisateur&#45;&gt;Absence -->
<g id="edge9" class="edge">
<title>Utilisateur&#45;&gt;Absence</title>
<path fill="none" stroke="#9458f3" d="M530.8463,-356.1851C514.9333,-342.9445 498.7037,-329.4405 483.1154,-316.4701"/>
<ellipse fill="none" stroke="#9458f3" cx="534.0897" cy="-358.8838" rx="4" ry="4"/>
<polygon fill="#9458f3" stroke="#9458f3" points="482.7144,-316.1364 477.9056,-306.2811 478.8708,-312.9383 475.0273,-309.7403 475.0273,-309.7403 475.0273,-309.7403 478.8708,-312.9383 472.1491,-313.1995 482.7144,-316.1364 482.7144,-316.1364"/>
</g>
<!-- Utilisateur&#45;&gt;Jour -->
<g id="edge8" class="edge">
<title>Utilisateur&#45;&gt;Jour</title>
<path fill="none" stroke="#98d7a7" d="M646,-353.4195C646,-347.2764 646,-341.0887 646,-334.9356"/>
<ellipse fill="none" stroke="#98d7a7" cx="646" cy="-357.4423" rx="4" ry="4"/>
<polygon fill="#98d7a7" stroke="#98d7a7" points="646.0001,-334.6267 650.5,-324.6267 646,-329.6267 646,-324.6267 646,-324.6267 646,-324.6267 646,-329.6267 641.5,-324.6267 646.0001,-334.6267 646.0001,-334.6267"/>
</g>
<!-- Work&#45;&gt;WorkingList -->
<g id="edge10" class="edge">
<title>Work&#45;&gt;WorkingList</title>
<path fill="none" stroke="#fe29c1" d="M145.6181,-360.7983C166.014,-295.057 200.5833,-207.0027 253,-143 261.9333,-132.0921 272.5316,-121.968 283.7719,-112.7504"/>
<ellipse fill="none" stroke="#fe29c1" cx="144.3708" cy="-364.8767" rx="4" ry="4"/>
<polygon fill="#fe29c1" stroke="#fe29c1" points="283.8048,-112.7244 294.4378,-110.0429 287.7242,-109.6199 291.6437,-106.5154 291.6437,-106.5154 291.6437,-106.5154 287.7242,-109.6199 288.8496,-102.9879 283.8048,-112.7244 283.8048,-112.7244"/>
</g>
<!-- TypeAbsence -->
<g id="node12" class="node">
<title>TypeAbsence</title>
<path fill="none" stroke="#000000" d="M274,-391.5C274,-391.5 494,-391.5 494,-391.5 500,-391.5 506,-397.5 506,-403.5 506,-403.5 506,-500.5 506,-500.5 506,-506.5 500,-512.5 494,-512.5 494,-512.5 274,-512.5 274,-512.5 268,-512.5 262,-506.5 262,-500.5 262,-500.5 262,-403.5 262,-403.5 262,-397.5 268,-391.5 274,-391.5"/>
<text text-anchor="middle" x="384" y="-497.3" font-family="Times,serif" font-size="14.00" fill="#000000">TypeAbsence</text>
<polyline fill="none" stroke="#000000" points="262,-489.5 506,-489.5 "/>
<text text-anchor="start" x="270" y="-474.3" font-family="Times,serif" font-size="14.00" fill="#000000">id :bigint</text>
<text text-anchor="start" x="270" y="-459.3" font-family="Times,serif" font-size="14.00" fill="#000000">code :character varying</text>
<text text-anchor="start" x="270" y="-444.3" font-family="Times,serif" font-size="14.00" fill="#000000">nom :character varying</text>
<text text-anchor="start" x="270" y="-429.3" font-family="Times,serif" font-size="14.00" fill="#000000">description :character varying</text>
<text text-anchor="start" x="270" y="-414.3" font-family="Times,serif" font-size="14.00" fill="#000000">created_at :timestamp without time zone</text>
<text text-anchor="start" x="270" y="-399.3" font-family="Times,serif" font-size="14.00" fill="#000000">updated_at :timestamp without time zone</text>
</g>
<!-- TypeAbsence&#45;&gt;Absence -->
<g id="edge11" class="edge">
<title>TypeAbsence&#45;&gt;Absence</title>
<path fill="none" stroke="#df556e" d="M384,-383.1257C384,-363.0152 384,-340.7867 384,-319.767"/>
<ellipse fill="none" stroke="#df556e" cx="384" cy="-387.2748" rx="4" ry="4"/>
<polygon fill="#df556e" stroke="#df556e" points="384.0001,-319.56 388.5,-309.5599 384,-314.56 384,-309.56 384,-309.56 384,-309.56 384,-314.56 379.5,-309.56 384.0001,-319.56 384.0001,-319.56"/>
</g>
<!-- Lieu -->
<g id="node13" class="node">
<title>Lieu</title>
<path fill="none" stroke="#000000" d="M648,-767.5C648,-767.5 868,-767.5 868,-767.5 874,-767.5 880,-773.5 880,-779.5 880,-779.5 880,-891.5 880,-891.5 880,-897.5 874,-903.5 868,-903.5 868,-903.5 648,-903.5 648,-903.5 642,-903.5 636,-897.5 636,-891.5 636,-891.5 636,-779.5 636,-779.5 636,-773.5 642,-767.5 648,-767.5"/>
<text text-anchor="middle" x="758" y="-888.3" font-family="Times,serif" font-size="14.00" fill="#000000">Lieu</text>
<polyline fill="none" stroke="#000000" points="636,-880.5 880,-880.5 "/>
<text text-anchor="start" x="644" y="-865.3" font-family="Times,serif" font-size="14.00" fill="#000000">id :bigint</text>
<text text-anchor="start" x="644" y="-850.3" font-family="Times,serif" font-size="14.00" fill="#000000">nom :character varying</text>
<text text-anchor="start" x="644" y="-835.3" font-family="Times,serif" font-size="14.00" fill="#000000">adresse :text</text>
<text text-anchor="start" x="644" y="-820.3" font-family="Times,serif" font-size="14.00" fill="#000000">phone :character varying</text>
<text text-anchor="start" x="644" y="-805.3" font-family="Times,serif" font-size="14.00" fill="#000000">note :character varying</text>
<text text-anchor="start" x="644" y="-790.3" font-family="Times,serif" font-size="14.00" fill="#000000">created_at :timestamp without time zone</text>
<text text-anchor="start" x="644" y="-775.3" font-family="Times,serif" font-size="14.00" fill="#000000">updated_at :timestamp without time zone</text>
</g>
<!-- Lieu&#45;&gt;Service -->
<g id="edge12" class="edge">
<title>Lieu&#45;&gt;Service</title>
<path fill="none" stroke="#681f3f" d="M758,-759.1657C758,-743.2516 758,-726.541 758,-710.8357"/>
<ellipse fill="none" stroke="#681f3f" cx="758" cy="-763.398" rx="4" ry="4"/>
<polygon fill="#681f3f" stroke="#681f3f" points="758.0001,-710.6788 762.5,-700.6787 758,-705.6788 758,-700.6788 758,-700.6788 758,-700.6788 758,-705.6788 753.5,-700.6788 758.0001,-710.6788 758.0001,-710.6788"/>
</g>
<!-- Jour&#45;&gt;WorkingList -->
<g id="edge13" class="edge">
<title>Jour&#45;&gt;WorkingList</title>
<path fill="none" stroke="#5dded5" d="M517.2301,-144.5367C516.4846,-144.0229 515.7411,-143.5106 515,-143 500.6843,-133.1377 485.4651,-122.6984 470.6579,-112.566"/>
<ellipse fill="none" stroke="#5dded5" cx="520.6997" cy="-146.9296" rx="4" ry="4"/>
<polygon fill="#5dded5" stroke="#5dded5" points="470.2513,-112.2879 464.5378,-102.9281 466.1243,-109.4652 461.9973,-106.6424 461.9973,-106.6424 461.9973,-106.6424 466.1243,-109.4652 459.4568,-110.3567 470.2513,-112.2879 470.2513,-112.2879"/>
</g>
</g>
</svg>
