<?xml version="1.0" encoding="UTF-8" standalone="no"?>
<!DOCTYPE svg PUBLIC "-//W3C//DTD SVG 1.1//EN"
 "http://www.w3.org/Graphics/SVG/1.1/DTD/svg11.dtd">
<!-- Generated by graphviz version 2.40.1 (20161225.0304)
 -->
<!-- Title: models_diagram Pages: 1 -->
<svg width="888pt" height="1025pt"
 viewBox="0.00 0.00 888.00 1025.00" xmlns="http://www.w3.org/2000/svg" xmlns:xlink="http://www.w3.org/1999/xlink">
<g id="graph0" class="graph" transform="scale(1 1) rotate(0) translate(4 1021)">
<title>models_diagram</title>
<polygon fill="transparent" stroke="transparent" points="-4,4 -4,-1021 884,-1021 884,4 -4,4"/>
<!-- _diagram_info -->
<g id="node1" class="node">
<title>_diagram_info</title>
<text text-anchor="start" x="38" y="-973.1" font-family="Times,serif" font-size="13.00" fill="#000000">Models diagram</text>
<text text-anchor="start" x="38" y="-959.1" font-family="Times,serif" font-size="13.00" fill="#000000">Date: Jan 23 2020 &#45; 15:00</text>
<text text-anchor="start" x="38" y="-945.1" font-family="Times,serif" font-size="13.00" fill="#000000">Migration version: 20200116141500</text>
<text text-anchor="start" x="38" y="-931.1" font-family="Times,serif" font-size="13.00" fill="#000000">Generated by RailRoady 1.5.3</text>
<text text-anchor="start" x="38" y="-917.1" font-family="Times,serif" font-size="13.00" fill="#000000">http://railroady.prestonlee.com</text>
</g>
<!-- Job -->
<g id="node2" class="node">
<title>Job</title>
<path fill="none" stroke="#000000" d="M349,-143.5C349,-143.5 569,-143.5 569,-143.5 575,-143.5 581,-149.5 581,-155.5 581,-155.5 581,-267.5 581,-267.5 581,-273.5 575,-279.5 569,-279.5 569,-279.5 349,-279.5 349,-279.5 343,-279.5 337,-273.5 337,-267.5 337,-267.5 337,-155.5 337,-155.5 337,-149.5 343,-143.5 349,-143.5"/>
<text text-anchor="middle" x="459" y="-264.3" font-family="Times,serif" font-size="14.00" fill="#000000">Job</text>
<polyline fill="none" stroke="#000000" points="337,-256.5 581,-256.5 "/>
<text text-anchor="start" x="345" y="-241.3" font-family="Times,serif" font-size="14.00" fill="#000000">id :bigint</text>
<text text-anchor="start" x="345" y="-226.3" font-family="Times,serif" font-size="14.00" fill="#000000">semaine_id :bigint</text>
<text text-anchor="start" x="345" y="-211.3" font-family="Times,serif" font-size="14.00" fill="#000000">numero_jour :integer</text>
<text text-anchor="start" x="345" y="-196.3" font-family="Times,serif" font-size="14.00" fill="#000000">am_pm :boolean</text>
<text text-anchor="start" x="345" y="-181.3" font-family="Times,serif" font-size="14.00" fill="#000000">note :character varying</text>
<text text-anchor="start" x="345" y="-166.3" font-family="Times,serif" font-size="14.00" fill="#000000">created_at :timestamp without time zone</text>
<text text-anchor="start" x="345" y="-151.3" font-family="Times,serif" font-size="14.00" fill="#000000">updated_at :timestamp without time zone</text>
</g>
<!-- WorkingList -->
<g id="node7" class="node">
<title>WorkingList</title>
<path fill="none" stroke="#000000" d="M480,-.5C480,-.5 700,-.5 700,-.5 706,-.5 712,-6.5 712,-12.5 712,-12.5 712,-94.5 712,-94.5 712,-100.5 706,-106.5 700,-106.5 700,-106.5 480,-106.5 480,-106.5 474,-106.5 468,-100.5 468,-94.5 468,-94.5 468,-12.5 468,-12.5 468,-6.5 474,-.5 480,-.5"/>
<text text-anchor="middle" x="590" y="-91.3" font-family="Times,serif" font-size="14.00" fill="#000000">WorkingList</text>
<polyline fill="none" stroke="#000000" points="468,-83.5 712,-83.5 "/>
<text text-anchor="start" x="476" y="-68.3" font-family="Times,serif" font-size="14.00" fill="#000000">id :bigint</text>
<text text-anchor="start" x="476" y="-53.3" font-family="Times,serif" font-size="14.00" fill="#000000">work_id :bigint</text>
<text text-anchor="start" x="476" y="-38.3" font-family="Times,serif" font-size="14.00" fill="#000000">job_id :bigint</text>
<text text-anchor="start" x="476" y="-23.3" font-family="Times,serif" font-size="14.00" fill="#000000">created_at :timestamp without time zone</text>
<text text-anchor="start" x="476" y="-8.3" font-family="Times,serif" font-size="14.00" fill="#000000">updated_at :timestamp without time zone</text>
</g>
<!-- Job&#45;&gt;WorkingList -->
<g id="edge1" class="edge">
<title>Job&#45;&gt;WorkingList</title>
<path fill="none" stroke="#c67260" d="M520.9224,-136.8149C527.1039,-129.3594 533.3281,-121.8524 539.3737,-114.5607"/>
<ellipse fill="none" stroke="#c67260" cx="518.2497" cy="-140.0386" rx="4" ry="4"/>
<polygon fill="#c67260" stroke="#c67260" points="539.4707,-114.4437 549.3176,-109.6177 542.6621,-110.5946 545.8534,-106.7455 545.8534,-106.7455 545.8534,-106.7455 542.6621,-110.5946 542.3892,-103.8733 539.4707,-114.4437 539.4707,-114.4437"/>
</g>
<!-- ApplicationRecord -->
<g id="node3" class="node">
<title>ApplicationRecord</title>
<ellipse fill="none" stroke="#000000" cx="601" cy="-948.5" rx="77.1866" ry="18"/>
<text text-anchor="middle" x="601" y="-944.8" font-family="Times,serif" font-size="14.00" fill="#000000">ApplicationRecord</text>
</g>
<!-- Groupe -->
<g id="node4" class="node">
<title>Groupe</title>
<path fill="none" stroke="#000000" d="M611,-730C611,-730 831,-730 831,-730 837,-730 843,-736 843,-742 843,-742 843,-824 843,-824 843,-830 837,-836 831,-836 831,-836 611,-836 611,-836 605,-836 599,-830 599,-824 599,-824 599,-742 599,-742 599,-736 605,-730 611,-730"/>
<text text-anchor="middle" x="721" y="-820.8" font-family="Times,serif" font-size="14.00" fill="#000000">Groupe</text>
<polyline fill="none" stroke="#000000" points="599,-813 843,-813 "/>
<text text-anchor="start" x="607" y="-797.8" font-family="Times,serif" font-size="14.00" fill="#000000">id :bigint</text>
<text text-anchor="start" x="607" y="-782.8" font-family="Times,serif" font-size="14.00" fill="#000000">nom :character varying</text>
<text text-anchor="start" x="607" y="-767.8" font-family="Times,serif" font-size="14.00" fill="#000000">description :character varying</text>
<text text-anchor="start" x="607" y="-752.8" font-family="Times,serif" font-size="14.00" fill="#000000">created_at :timestamp without time zone</text>
<text text-anchor="start" x="607" y="-737.8" font-family="Times,serif" font-size="14.00" fill="#000000">updated_at :timestamp without time zone</text>
</g>
<!-- Utilisateur -->
<g id="node9" class="node">
<title>Utilisateur</title>
<path fill="none" stroke="#000000" d="M274,-489.5C274,-489.5 494,-489.5 494,-489.5 500,-489.5 506,-495.5 506,-501.5 506,-501.5 506,-673.5 506,-673.5 506,-679.5 500,-685.5 494,-685.5 494,-685.5 274,-685.5 274,-685.5 268,-685.5 262,-679.5 262,-673.5 262,-673.5 262,-501.5 262,-501.5 262,-495.5 268,-489.5 274,-489.5"/>
<text text-anchor="middle" x="384" y="-670.3" font-family="Times,serif" font-size="14.00" fill="#000000">Utilisateur</text>
<polyline fill="none" stroke="#000000" points="262,-662.5 506,-662.5 "/>
<text text-anchor="start" x="270" y="-647.3" font-family="Times,serif" font-size="14.00" fill="#000000">id :bigint</text>
<text text-anchor="start" x="270" y="-632.3" font-family="Times,serif" font-size="14.00" fill="#000000">groupe_id :bigint</text>
<text text-anchor="start" x="270" y="-617.3" font-family="Times,serif" font-size="14.00" fill="#000000">service_id :bigint</text>
<text text-anchor="start" x="270" y="-602.3" font-family="Times,serif" font-size="14.00" fill="#000000">prenom :character varying</text>
<text text-anchor="start" x="270" y="-587.3" font-family="Times,serif" font-size="14.00" fill="#000000">nom :character varying</text>
<text text-anchor="start" x="270" y="-572.3" font-family="Times,serif" font-size="14.00" fill="#000000">date_de_naissance :date</text>
<text text-anchor="start" x="270" y="-557.3" font-family="Times,serif" font-size="14.00" fill="#000000">email :character varying</text>
<text text-anchor="start" x="270" y="-542.3" font-family="Times,serif" font-size="14.00" fill="#000000">phone :character varying</text>
<text text-anchor="start" x="270" y="-527.3" font-family="Times,serif" font-size="14.00" fill="#000000">gsm :character varying</text>
<text text-anchor="start" x="270" y="-512.3" font-family="Times,serif" font-size="14.00" fill="#000000">created_at :timestamp without time zone</text>
<text text-anchor="start" x="270" y="-497.3" font-family="Times,serif" font-size="14.00" fill="#000000">updated_at :timestamp without time zone</text>
</g>
<!-- Groupe&#45;&gt;Utilisateur -->
<g id="edge2" class="edge">
<title>Groupe&#45;&gt;Utilisateur</title>
<path fill="none" stroke="#32f483" d="M591.4822,-726.9791C565.6393,-714.4273 539.0614,-700.5017 515,-686 514.9086,-685.9449 514.8172,-685.8898 514.7258,-685.8346"/>
<ellipse fill="none" stroke="#32f483" cx="595.1459" cy="-728.7452" rx="4" ry="4"/>
<polygon fill="#32f483" stroke="#32f483" points="514.7025,-685.8203 508.557,-676.7382 510.4478,-683.1938 506.1932,-680.5674 506.1932,-680.5674 506.1932,-680.5674 510.4478,-683.1938 503.8294,-684.3965 514.7025,-685.8203 514.7025,-685.8203"/>
</g>
<!-- Work -->
<g id="node11" class="node">
<title>Work</title>
<path fill="none" stroke="#000000" d="M648,-151C648,-151 868,-151 868,-151 874,-151 880,-157 880,-163 880,-163 880,-260 880,-260 880,-266 874,-272 868,-272 868,-272 648,-272 648,-272 642,-272 636,-266 636,-260 636,-260 636,-163 636,-163 636,-157 642,-151 648,-151"/>
<text text-anchor="middle" x="758" y="-256.8" font-family="Times,serif" font-size="14.00" fill="#000000">Work</text>
<polyline fill="none" stroke="#000000" points="636,-249 880,-249 "/>
<text text-anchor="start" x="644" y="-233.8" font-family="Times,serif" font-size="14.00" fill="#000000">id :bigint</text>
<text text-anchor="start" x="644" y="-218.8" font-family="Times,serif" font-size="14.00" fill="#000000">groupe_id :bigint</text>
<text text-anchor="start" x="644" y="-203.8" font-family="Times,serif" font-size="14.00" fill="#000000">nom :character varying</text>
<text text-anchor="start" x="644" y="-188.8" font-family="Times,serif" font-size="14.00" fill="#000000">description :character varying</text>
<text text-anchor="start" x="644" y="-173.8" font-family="Times,serif" font-size="14.00" fill="#000000">created_at :timestamp without time zone</text>
<text text-anchor="start" x="644" y="-158.8" font-family="Times,serif" font-size="14.00" fill="#000000">updated_at :timestamp without time zone</text>
</g>
<!-- Groupe&#45;&gt;Work -->
<g id="edge3" class="edge">
<title>Groupe&#45;&gt;Work</title>
<path fill="none" stroke="#f5cfd6" d="M762.1947,-722.6357C768.3071,-710.9428 773.6659,-698.4435 777,-686 814.3142,-546.7351 791.7822,-376.3138 773.7552,-282.2908"/>
<ellipse fill="none" stroke="#f5cfd6" cx="760.2114" cy="-726.2888" rx="4" ry="4"/>
<polygon fill="#f5cfd6" stroke="#f5cfd6" points="773.7251,-282.1366 776.222,-271.4588 772.7654,-277.2295 771.8057,-272.3225 771.8057,-272.3225 771.8057,-272.3225 772.7654,-277.2295 767.3894,-273.1862 773.7251,-282.1366 773.7251,-282.1366"/>
</g>
<!-- Conge -->
<g id="node5" class="node">
<title>Conge</title>
<path fill="none" stroke="#000000" d="M12,-316.5C12,-316.5 232,-316.5 232,-316.5 238,-316.5 244,-322.5 244,-328.5 244,-328.5 244,-440.5 244,-440.5 244,-446.5 238,-452.5 232,-452.5 232,-452.5 12,-452.5 12,-452.5 6,-452.5 0,-446.5 0,-440.5 0,-440.5 0,-328.5 0,-328.5 0,-322.5 6,-316.5 12,-316.5"/>
<text text-anchor="middle" x="122" y="-437.3" font-family="Times,serif" font-size="14.00" fill="#000000">Conge</text>
<polyline fill="none" stroke="#000000" points="0,-429.5 244,-429.5 "/>
<text text-anchor="start" x="8" y="-414.3" font-family="Times,serif" font-size="14.00" fill="#000000">id :bigint</text>
<text text-anchor="start" x="8" y="-399.3" font-family="Times,serif" font-size="14.00" fill="#000000">utilisateur_id :bigint</text>
<text text-anchor="start" x="8" y="-384.3" font-family="Times,serif" font-size="14.00" fill="#000000">date :date</text>
<text text-anchor="start" x="8" y="-369.3" font-family="Times,serif" font-size="14.00" fill="#000000">accord :boolean</text>
<text text-anchor="start" x="8" y="-354.3" font-family="Times,serif" font-size="14.00" fill="#000000">remarque :character varying</text>
<text text-anchor="start" x="8" y="-339.3" font-family="Times,serif" font-size="14.00" fill="#000000">created_at :timestamp without time zone</text>
<text text-anchor="start" x="8" y="-324.3" font-family="Times,serif" font-size="14.00" fill="#000000">updated_at :timestamp without time zone</text>
</g>
<!-- Service -->
<g id="node6" class="node">
<title>Service</title>
<path fill="none" stroke="#000000" d="M274,-722.5C274,-722.5 494,-722.5 494,-722.5 500,-722.5 506,-728.5 506,-734.5 506,-734.5 506,-831.5 506,-831.5 506,-837.5 500,-843.5 494,-843.5 494,-843.5 274,-843.5 274,-843.5 268,-843.5 262,-837.5 262,-831.5 262,-831.5 262,-734.5 262,-734.5 262,-728.5 268,-722.5 274,-722.5"/>
<text text-anchor="middle" x="384" y="-828.3" font-family="Times,serif" font-size="14.00" fill="#000000">Service</text>
<polyline fill="none" stroke="#000000" points="262,-820.5 506,-820.5 "/>
<text text-anchor="start" x="270" y="-805.3" font-family="Times,serif" font-size="14.00" fill="#000000">id :bigint</text>
<text text-anchor="start" x="270" y="-790.3" font-family="Times,serif" font-size="14.00" fill="#000000">lieu_id :bigint</text>
<text text-anchor="start" x="270" y="-775.3" font-family="Times,serif" font-size="14.00" fill="#000000">nom :character varying</text>
<text text-anchor="start" x="270" y="-760.3" font-family="Times,serif" font-size="14.00" fill="#000000">description :character varying</text>
<text text-anchor="start" x="270" y="-745.3" font-family="Times,serif" font-size="14.00" fill="#000000">created_at :timestamp without time zone</text>
<text text-anchor="start" x="270" y="-730.3" font-family="Times,serif" font-size="14.00" fill="#000000">updated_at :timestamp without time zone</text>
</g>
<!-- Service&#45;&gt;Utilisateur -->
<g id="edge4" class="edge">
<title>Service&#45;&gt;Utilisateur</title>
<path fill="none" stroke="#7a4f9d" d="M384,-714.4359C384,-708.4915 384,-702.3884 384,-696.2265"/>
<ellipse fill="none" stroke="#7a4f9d" cx="384" cy="-718.4814" rx="4" ry="4"/>
<polygon fill="#7a4f9d" stroke="#7a4f9d" points="384.0001,-695.8183 388.5,-685.8182 384,-690.8183 384,-685.8183 384,-685.8183 384,-685.8183 384,-690.8183 379.5,-685.8183 384.0001,-695.8183 384.0001,-695.8183"/>
</g>
<!-- Absence -->
<g id="node8" class="node">
<title>Absence</title>
<path fill="none" stroke="#000000" d="M536,-316.5C536,-316.5 756,-316.5 756,-316.5 762,-316.5 768,-322.5 768,-328.5 768,-328.5 768,-440.5 768,-440.5 768,-446.5 762,-452.5 756,-452.5 756,-452.5 536,-452.5 536,-452.5 530,-452.5 524,-446.5 524,-440.5 524,-440.5 524,-328.5 524,-328.5 524,-322.5 530,-316.5 536,-316.5"/>
<text text-anchor="middle" x="646" y="-437.3" font-family="Times,serif" font-size="14.00" fill="#000000">Absence</text>
<polyline fill="none" stroke="#000000" points="524,-429.5 768,-429.5 "/>
<text text-anchor="start" x="532" y="-414.3" font-family="Times,serif" font-size="14.00" fill="#000000">id :bigint</text>
<text text-anchor="start" x="532" y="-399.3" font-family="Times,serif" font-size="14.00" fill="#000000">type_absence_id :bigint</text>
<text text-anchor="start" x="532" y="-384.3" font-family="Times,serif" font-size="14.00" fill="#000000">utilisateur_id :bigint</text>
<text text-anchor="start" x="532" y="-369.3" font-family="Times,serif" font-size="14.00" fill="#000000">date :date</text>
<text text-anchor="start" x="532" y="-354.3" font-family="Times,serif" font-size="14.00" fill="#000000">remarque :character varying</text>
<text text-anchor="start" x="532" y="-339.3" font-family="Times,serif" font-size="14.00" fill="#000000">created_at :timestamp without time zone</text>
<text text-anchor="start" x="532" y="-324.3" font-family="Times,serif" font-size="14.00" fill="#000000">updated_at :timestamp without time zone</text>
</g>
<!-- Utilisateur&#45;&gt;Conge -->
<g id="edge6" class="edge">
<title>Utilisateur&#45;&gt;Conge</title>
<path fill="none" stroke="#ade4b1" d="M255.2602,-487.7512C242.6925,-478.0136 230.097,-468.2546 217.9367,-458.8326"/>
<ellipse fill="none" stroke="#ade4b1" cx="258.6592" cy="-490.3848" rx="4" ry="4"/>
<polygon fill="#ade4b1" stroke="#ade4b1" points="217.918,-458.8182 212.7693,-449.1361 213.9655,-455.7558 210.0131,-452.6934 210.0131,-452.6934 210.0131,-452.6934 213.9655,-455.7558 207.2569,-456.2506 217.918,-458.8182 217.918,-458.8182"/>
</g>
<!-- Utilisateur&#45;&gt;Absence -->
<g id="edge7" class="edge">
<title>Utilisateur&#45;&gt;Absence</title>
<path fill="none" stroke="#749ab4" d="M512.7398,-487.7512C525.3075,-478.0136 537.903,-468.2546 550.0633,-458.8326"/>
<ellipse fill="none" stroke="#749ab4" cx="509.3408" cy="-490.3848" rx="4" ry="4"/>
<polygon fill="#749ab4" stroke="#749ab4" points="550.082,-458.8182 560.7431,-456.2506 554.0345,-455.7558 557.9869,-452.6934 557.9869,-452.6934 557.9869,-452.6934 554.0345,-455.7558 555.2307,-449.1361 550.082,-458.8182 550.082,-458.8182"/>
</g>
<!-- Semaine -->
<g id="node10" class="node">
<title>Semaine</title>
<path fill="none" stroke="#000000" d="M274,-316.5C274,-316.5 494,-316.5 494,-316.5 500,-316.5 506,-322.5 506,-328.5 506,-328.5 506,-440.5 506,-440.5 506,-446.5 500,-452.5 494,-452.5 494,-452.5 274,-452.5 274,-452.5 268,-452.5 262,-446.5 262,-440.5 262,-440.5 262,-328.5 262,-328.5 262,-322.5 268,-316.5 274,-316.5"/>
<text text-anchor="middle" x="384" y="-437.3" font-family="Times,serif" font-size="14.00" fill="#000000">Semaine</text>
<polyline fill="none" stroke="#000000" points="262,-429.5 506,-429.5 "/>
<text text-anchor="start" x="270" y="-414.3" font-family="Times,serif" font-size="14.00" fill="#000000">id :bigint</text>
<text text-anchor="start" x="270" y="-399.3" font-family="Times,serif" font-size="14.00" fill="#000000">utilisateur_id :bigint</text>
<text text-anchor="start" x="270" y="-384.3" font-family="Times,serif" font-size="14.00" fill="#000000">numero_semaine :character varying</text>
<text text-anchor="start" x="270" y="-369.3" font-family="Times,serif" font-size="14.00" fill="#000000">date_lundi :date</text>
<text text-anchor="start" x="270" y="-354.3" font-family="Times,serif" font-size="14.00" fill="#000000">note :text</text>
<text text-anchor="start" x="270" y="-339.3" font-family="Times,serif" font-size="14.00" fill="#000000">created_at :timestamp without time zone</text>
<text text-anchor="start" x="270" y="-324.3" font-family="Times,serif" font-size="14.00" fill="#000000">updated_at :timestamp without time zone</text>
</g>
<!-- Utilisateur&#45;&gt;Semaine -->
<g id="edge5" class="edge">
<title>Utilisateur&#45;&gt;Semaine</title>
<path fill="none" stroke="#8439f0" d="M384,-481.1662C384,-474.9902 384,-468.838 384,-462.8015"/>
<ellipse fill="none" stroke="#8439f0" cx="384" cy="-485.2705" rx="4" ry="4"/>
<polygon fill="#8439f0" stroke="#8439f0" points="384.0001,-462.7679 388.5,-452.7678 384,-457.7679 384,-452.7679 384,-452.7679 384,-452.7679 384,-457.7679 379.5,-452.7679 384.0001,-462.7679 384.0001,-462.7679"/>
</g>
<!-- Semaine&#45;&gt;Job -->
<g id="edge8" class="edge">
<title>Semaine&#45;&gt;Job</title>
<path fill="none" stroke="#837aa5" d="M416.8333,-308.7645C419.6539,-302.2583 422.5103,-295.6696 425.3373,-289.1486"/>
<ellipse fill="none" stroke="#837aa5" cx="415.233" cy="-312.4559" rx="4" ry="4"/>
<polygon fill="#837aa5" stroke="#837aa5" points="425.4729,-288.8357 433.5793,-281.4507 427.4617,-284.2482 429.4505,-279.6608 429.4505,-279.6608 429.4505,-279.6608 427.4617,-284.2482 425.3218,-277.8708 425.4729,-288.8357 425.4729,-288.8357"/>
</g>
<!-- Work&#45;&gt;WorkingList -->
<g id="edge9" class="edge">
<title>Work&#45;&gt;WorkingList</title>
<path fill="none" stroke="#0a6047" d="M687.6931,-145.378C676.5661,-134.9133 665.1096,-124.1388 654.1333,-113.8159"/>
<ellipse fill="none" stroke="#0a6047" cx="690.6135" cy="-148.1246" rx="4" ry="4"/>
<polygon fill="#0a6047" stroke="#0a6047" points="653.9055,-113.6017 649.7039,-103.4726 650.2633,-110.1762 646.621,-106.7507 646.621,-106.7507 646.621,-106.7507 650.2633,-110.1762 643.538,-110.0287 653.9055,-113.6017 653.9055,-113.6017"/>
</g>
<!-- TypeAbsence -->
<g id="node12" class="node">
<title>TypeAbsence</title>
<path fill="none" stroke="#000000" d="M536,-534.5C536,-534.5 756,-534.5 756,-534.5 762,-534.5 768,-540.5 768,-546.5 768,-546.5 768,-628.5 768,-628.5 768,-634.5 762,-640.5 756,-640.5 756,-640.5 536,-640.5 536,-640.5 530,-640.5 524,-634.5 524,-628.5 524,-628.5 524,-546.5 524,-546.5 524,-540.5 530,-534.5 536,-534.5"/>
<text text-anchor="middle" x="646" y="-625.3" font-family="Times,serif" font-size="14.00" fill="#000000">TypeAbsence</text>
<polyline fill="none" stroke="#000000" points="524,-617.5 768,-617.5 "/>
<text text-anchor="start" x="532" y="-602.3" font-family="Times,serif" font-size="14.00" fill="#000000">id :bigint</text>
<text text-anchor="start" x="532" y="-587.3" font-family="Times,serif" font-size="14.00" fill="#000000">nom :character varying</text>
<text text-anchor="start" x="532" y="-572.3" font-family="Times,serif" font-size="14.00" fill="#000000">description :character varying</text>
<text text-anchor="start" x="532" y="-557.3" font-family="Times,serif" font-size="14.00" fill="#000000">created_at :timestamp without time zone</text>
<text text-anchor="start" x="532" y="-542.3" font-family="Times,serif" font-size="14.00" fill="#000000">updated_at :timestamp without time zone</text>
</g>
<!-- TypeAbsence&#45;&gt;Absence -->
<g id="edge10" class="edge">
<title>TypeAbsence&#45;&gt;Absence</title>
<path fill="none" stroke="#d6c2e1" d="M646,-526.3511C646,-506.3575 646,-483.8688 646,-462.791"/>
<ellipse fill="none" stroke="#d6c2e1" cx="646" cy="-530.4293" rx="4" ry="4"/>
<polygon fill="#d6c2e1" stroke="#d6c2e1" points="646.0001,-462.5741 650.5,-452.5741 646,-457.5741 646,-452.5741 646,-452.5741 646,-452.5741 646,-457.5741 641.5,-452.5742 646.0001,-462.5741 646.0001,-462.5741"/>
</g>
<!-- Lieu -->
<g id="node13" class="node">
<title>Lieu</title>
<path fill="none" stroke="#000000" d="M274,-880.5C274,-880.5 494,-880.5 494,-880.5 500,-880.5 506,-886.5 506,-892.5 506,-892.5 506,-1004.5 506,-1004.5 506,-1010.5 500,-1016.5 494,-1016.5 494,-1016.5 274,-1016.5 274,-1016.5 268,-1016.5 262,-1010.5 262,-1004.5 262,-1004.5 262,-892.5 262,-892.5 262,-886.5 268,-880.5 274,-880.5"/>
<text text-anchor="middle" x="384" y="-1001.3" font-family="Times,serif" font-size="14.00" fill="#000000">Lieu</text>
<polyline fill="none" stroke="#000000" points="262,-993.5 506,-993.5 "/>
<text text-anchor="start" x="270" y="-978.3" font-family="Times,serif" font-size="14.00" fill="#000000">id :bigint</text>
<text text-anchor="start" x="270" y="-963.3" font-family="Times,serif" font-size="14.00" fill="#000000">nom :character varying</text>
<text text-anchor="start" x="270" y="-948.3" font-family="Times,serif" font-size="14.00" fill="#000000">adresse :text</text>
<text text-anchor="start" x="270" y="-933.3" font-family="Times,serif" font-size="14.00" fill="#000000">phone :character varying</text>
<text text-anchor="start" x="270" y="-918.3" font-family="Times,serif" font-size="14.00" fill="#000000">note :character varying</text>
<text text-anchor="start" x="270" y="-903.3" font-family="Times,serif" font-size="14.00" fill="#000000">created_at :timestamp without time zone</text>
<text text-anchor="start" x="270" y="-888.3" font-family="Times,serif" font-size="14.00" fill="#000000">updated_at :timestamp without time zone</text>
</g>
<!-- Lieu&#45;&gt;Service -->
<g id="edge11" class="edge">
<title>Lieu&#45;&gt;Service</title>
<path fill="none" stroke="#0947aa" d="M384,-871.9454C384,-865.877 384,-859.7639 384,-853.7376"/>
<ellipse fill="none" stroke="#0947aa" cx="384" cy="-876.2293" rx="4" ry="4"/>
<polygon fill="#0947aa" stroke="#0947aa" points="384.0001,-853.701 388.5,-843.701 384,-848.701 384,-843.701 384,-843.701 384,-843.701 384,-848.701 379.5,-843.701 384.0001,-853.701 384.0001,-853.701"/>
</g>
</g>
</svg>
